<svg width="15" height="18" viewBox="0 0 15 18" fill="none" xmlns="http://www.w3.org/2000/svg">
<path fill-rule="evenodd" clip-rule="evenodd" d="M11.6086 4.83317C11.6351 4.77411 11.6475 4.70974 11.6449 4.64511H11.6667C11.5735 2.42143 9.73741 0.666504 7.50412 0.666504C5.27083 0.666504 3.43477 2.42143 3.34157 4.64511C3.33059 4.70732 3.33059 4.77096 3.34157 4.83317H3.27643C2.20851 4.83317 1.06695 5.53814 0.735533 7.43323L0.0874205 12.5955C-0.442853 16.3856 1.50885 17.3332 4.05711 17.3332H10.9654C13.5063 17.3332 15.3991 15.9611 14.9277 12.5955L14.287 7.43323C13.8966 5.59121 12.7919 4.83317 11.7387 4.83317H11.6086ZM10.411 4.83317C10.3878 4.77312 10.3755 4.70944 10.3747 4.64511C10.3747 3.04719 9.07488 1.75182 7.47146 1.75182C5.86803 1.75182 4.5682 3.04719 4.5682 4.64511C4.57919 4.70732 4.57919 4.77096 4.5682 4.83317H10.411ZM5.08083 9.12365C4.67408 9.12365 4.34434 8.78427 4.34434 8.36561C4.34434 7.94696 4.67408 7.60758 5.08083 7.60758C5.48758 7.60758 5.81732 7.94696 5.81732 8.36561C5.81732 8.78427 5.48758 9.12365 5.08083 9.12365ZM9.16836 8.36561C9.16836 8.78427 9.49809 9.12365 9.90485 9.12365C10.3116 9.12365 10.6413 8.78427 10.6413 8.36561C10.6413 7.94696 10.3116 7.60758 9.90485 7.60758C9.49809 7.60758 9.16836 7.94696 9.16836 8.36561Z" fill="white"/>
</svg>
