<svg width="24" height="25" viewBox="0 0 24 25" fill="none" xmlns="http://www.w3.org/2000/svg">
<mask id="mask0_2896_28847" style="mask-type:luminance" maskUnits="userSpaceOnUse" x="0" y="5" width="24" height="20">
<path fill-rule="evenodd" clip-rule="evenodd" d="M0.333252 5.63086H23.1834V24.5094H0.333252V5.63086Z" fill="white"/>
</mask>
<g mask="url(#mask0_2896_28847)">
<path fill-rule="evenodd" clip-rule="evenodd" d="M5.8347 7.38086C5.3202 7.38086 3.60054 7.58853 3.10704 10.2532L2.20637 17.2532C1.91354 19.2167 2.13987 20.6377 2.8807 21.4975C3.6122 22.3469 4.9212 22.7599 6.8812 22.7599H16.6205C17.8432 22.7599 19.5127 22.516 20.5207 21.3517C21.321 20.4289 21.5964 19.0545 21.3397 17.266L20.4309 10.2054C20.0435 8.46586 19.0215 7.38086 17.7102 7.38086H5.8347ZM16.6205 24.5099H6.8812C4.38104 24.5099 2.6392 23.8974 1.55537 22.6385C0.466871 21.3762 0.102871 19.4827 0.473871 17.0117L1.3792 9.98136C1.9742 6.75786 4.15004 5.63086 5.8347 5.63086H17.7102C19.4019 5.63086 21.4587 6.75436 22.1529 9.90553L23.0734 17.0304C23.4035 19.3299 22.9905 21.1744 21.8437 22.4974C20.7027 23.8134 18.8967 24.5099 16.6205 24.5099Z" fill="#212121"/>
</g>
<path fill-rule="evenodd" clip-rule="evenodd" d="M16.7806 7.12398C16.2976 7.12398 15.9056 6.73198 15.9056 6.24898C15.9056 3.95182 14.0366 2.08398 11.7406 2.08398H11.7231C10.6253 2.08398 9.55547 2.52615 8.77963 3.29732C8.0003 4.07315 7.55347 5.14998 7.55347 6.24898C7.55347 6.73198 7.16147 7.12398 6.67847 7.12398C6.19547 7.12398 5.80347 6.73198 5.80347 6.24898C5.80347 4.68682 6.43813 3.15965 7.54413 2.05715C8.64663 0.961651 10.1668 0.333984 11.7196 0.333984H11.7441C15.0026 0.333984 17.6556 2.98698 17.6556 6.24898C17.6556 6.73198 17.2636 7.12398 16.7806 7.12398Z" fill="#212121"/>
<path fill-rule="evenodd" clip-rule="evenodd" d="M15.2004 12.3789H15.1467C14.6637 12.3789 14.2717 11.9869 14.2717 11.5039C14.2717 11.0209 14.6637 10.6289 15.1467 10.6289C15.6297 10.6289 16.0486 11.0209 16.0486 11.5039C16.0486 11.9869 15.6834 12.3789 15.2004 12.3789Z" fill="#212121"/>
<path fill-rule="evenodd" clip-rule="evenodd" d="M8.39747 12.3789H8.34497C7.86197 12.3789 7.46997 11.9869 7.46997 11.5039C7.46997 11.0209 7.86197 10.6289 8.34497 10.6289C8.82797 10.6289 9.2468 11.0209 9.2468 11.5039C9.2468 11.9869 8.88047 12.3789 8.39747 12.3789Z" fill="#212121"/>
</svg>
