<svg width="380" height="153" viewBox="0 0 380 153" fill="none" xmlns="http://www.w3.org/2000/svg">
<rect width="380" height="153" rx="20" fill="white"/>
<path d="M12.9381 12H8.96021V124H12.9381V12Z" fill="black"/>
<path d="M20.8937 12H16.9158V124H20.8937V12Z" fill="black"/>
<path d="M28.8717 12H24.8938V112H28.8717V12Z" fill="black"/>
<path d="M44.7828 12H36.8269V112H44.7828V12Z" fill="black"/>
<path d="M56.7179 12H52.74V112H56.7179V12Z" fill="black"/>
<path d="M72.629 12H64.6731V112H72.629V12Z" fill="black"/>
<path d="M80.5841 12H76.6062V112H80.5841V12Z" fill="black"/>
<path d="M100.475 12H96.4968V112H100.475V12Z" fill="black"/>
<path d="M112.408 12H108.43V112H112.408V12Z" fill="black"/>
<path d="M128.321 12H120.365V112H128.321V12Z" fill="black"/>
<path d="M144.232 12H136.276V112H144.232V12Z" fill="black"/>
<path d="M156.165 12H148.209V112H156.165V12Z" fill="black"/>
<path d="M168.1 12H160.145V112H168.1V12Z" fill="black"/>
<path d="M184.011 12H176.055V112H184.011V12Z" fill="black"/>
<path d="M80.7628 134V133.233L83.6435 130.08C83.9815 129.71 84.2599 129.389 84.4787 129.116C84.6974 128.841 84.8594 128.582 84.9645 128.341C85.0724 128.097 85.1264 127.841 85.1264 127.574C85.1264 127.267 85.0526 127.001 84.9048 126.777C84.7599 126.553 84.5611 126.379 84.3082 126.257C84.0554 126.135 83.7713 126.074 83.456 126.074C83.1207 126.074 82.8281 126.143 82.5781 126.283C82.331 126.419 82.1392 126.611 82.0028 126.858C81.8693 127.105 81.8026 127.395 81.8026 127.727H80.7969C80.7969 127.216 80.9148 126.767 81.1506 126.381C81.3864 125.994 81.7074 125.693 82.1136 125.477C82.5227 125.261 82.9815 125.153 83.4901 125.153C84.0014 125.153 84.4545 125.261 84.8494 125.477C85.2443 125.693 85.554 125.984 85.7784 126.351C86.0028 126.717 86.1151 127.125 86.1151 127.574C86.1151 127.895 86.0568 128.209 85.9403 128.516C85.8267 128.82 85.6278 129.159 85.3438 129.534C85.0625 129.906 84.6719 130.361 84.1719 130.898L82.2116 132.994V133.062H86.2685V134H80.7628ZM88.0284 134V133.233L90.9091 130.08C91.2472 129.71 91.5256 129.389 91.7443 129.116C91.9631 128.841 92.125 128.582 92.2301 128.341C92.3381 128.097 92.392 127.841 92.392 127.574C92.392 127.267 92.3182 127.001 92.1705 126.777C92.0256 126.553 91.8267 126.379 91.5739 126.257C91.321 126.135 91.0369 126.074 90.7216 126.074C90.3864 126.074 90.0938 126.143 89.8438 126.283C89.5966 126.419 89.4048 126.611 89.2685 126.858C89.1349 127.105 89.0682 127.395 89.0682 127.727H88.0625C88.0625 127.216 88.1804 126.767 88.4162 126.381C88.652 125.994 88.973 125.693 89.3793 125.477C89.7884 125.261 90.2472 125.153 90.7557 125.153C91.267 125.153 91.7202 125.261 92.1151 125.477C92.5099 125.693 92.8196 125.984 93.044 126.351C93.2685 126.717 93.3807 127.125 93.3807 127.574C93.3807 127.895 93.3224 128.209 93.206 128.516C93.0923 128.82 92.8935 129.159 92.6094 129.534C92.3281 129.906 91.9375 130.361 91.4375 130.898L89.4773 132.994V133.062H93.5341V134H88.0284ZM98.2429 134.119C97.6804 134.119 97.179 134.023 96.7386 133.83C96.3011 133.636 95.9531 133.368 95.6946 133.024C95.4389 132.678 95.2997 132.276 95.277 131.818H96.3509C96.3736 132.099 96.4702 132.342 96.6406 132.547C96.8111 132.749 97.0341 132.905 97.3097 133.016C97.5852 133.126 97.8906 133.182 98.2259 133.182C98.6009 133.182 98.9332 133.116 99.223 132.986C99.5128 132.855 99.7401 132.673 99.9048 132.44C100.07 132.207 100.152 131.938 100.152 131.631C100.152 131.31 100.072 131.027 99.9134 130.783C99.7543 130.536 99.5213 130.342 99.2145 130.203C98.9077 130.064 98.5327 129.994 98.0895 129.994H97.3906V129.057H98.0895C98.4361 129.057 98.7401 128.994 99.0014 128.869C99.2656 128.744 99.4716 128.568 99.6193 128.341C99.7699 128.114 99.8452 127.847 99.8452 127.54C99.8452 127.244 99.7798 126.987 99.6491 126.768C99.5185 126.55 99.3338 126.379 99.0952 126.257C98.8594 126.135 98.581 126.074 98.2599 126.074C97.9588 126.074 97.6747 126.129 97.4077 126.24C97.1435 126.348 96.9276 126.506 96.7599 126.713C96.5923 126.918 96.5014 127.165 96.4872 127.455H95.4645C95.4815 126.997 95.6193 126.597 95.8778 126.253C96.1364 125.906 96.4744 125.636 96.892 125.443C97.3125 125.25 97.7741 125.153 98.277 125.153C98.8168 125.153 99.2798 125.263 99.6662 125.482C100.053 125.697 100.349 125.983 100.557 126.338C100.764 126.693 100.868 127.077 100.868 127.489C100.868 127.98 100.739 128.399 100.48 128.746C100.224 129.092 99.8764 129.332 99.4361 129.466V129.534C99.9872 129.625 100.418 129.859 100.727 130.237C101.037 130.612 101.192 131.077 101.192 131.631C101.192 132.105 101.063 132.531 100.804 132.909C100.548 133.284 100.199 133.58 99.7557 133.795C99.3125 134.011 98.8082 134.119 98.2429 134.119ZM102.935 134V133.233L105.815 130.08C106.153 129.71 106.432 129.389 106.651 129.116C106.869 128.841 107.031 128.582 107.136 128.341C107.244 128.097 107.298 127.841 107.298 127.574C107.298 127.267 107.224 127.001 107.077 126.777C106.932 126.553 106.733 126.379 106.48 126.257C106.227 126.135 105.943 126.074 105.628 126.074C105.293 126.074 105 126.143 104.75 126.283C104.503 126.419 104.311 126.611 104.175 126.858C104.041 127.105 103.974 127.395 103.974 127.727H102.969C102.969 127.216 103.087 126.767 103.322 126.381C103.558 125.994 103.879 125.693 104.286 125.477C104.695 125.261 105.153 125.153 105.662 125.153C106.173 125.153 106.626 125.261 107.021 125.477C107.416 125.693 107.726 125.984 107.95 126.351C108.175 126.717 108.287 127.125 108.287 127.574C108.287 127.895 108.229 128.209 108.112 128.516C107.999 128.82 107.8 129.159 107.516 129.534C107.234 129.906 106.844 130.361 106.344 130.898L104.384 132.994V133.062H108.44V134H102.935ZM110.2 134V133.233L113.081 130.08C113.419 129.71 113.697 129.389 113.916 129.116C114.135 128.841 114.297 128.582 114.402 128.341C114.51 128.097 114.564 127.841 114.564 127.574C114.564 127.267 114.49 127.001 114.342 126.777C114.197 126.553 113.999 126.379 113.746 126.257C113.493 126.135 113.209 126.074 112.893 126.074C112.558 126.074 112.266 126.143 112.016 126.283C111.768 126.419 111.577 126.611 111.44 126.858C111.307 127.105 111.24 127.395 111.24 127.727H110.234C110.234 127.216 110.352 126.767 110.588 126.381C110.824 125.994 111.145 125.693 111.551 125.477C111.96 125.261 112.419 125.153 112.928 125.153C113.439 125.153 113.892 125.261 114.287 125.477C114.682 125.693 114.991 125.984 115.216 126.351C115.44 126.717 115.553 127.125 115.553 127.574C115.553 127.895 115.494 128.209 115.378 128.516C115.264 128.82 115.065 129.159 114.781 129.534C114.5 129.906 114.109 130.361 113.609 130.898L111.649 132.994V133.062H115.706V134H110.2ZM120.534 125.273V134H119.477V126.381H119.426L117.295 127.795V126.722L119.477 125.273H120.534Z" fill="black"/>
<path d="M191.989 12H188.011V124H191.989V12Z" fill="black"/>
<path d="M199.945 12H195.967V124H199.945V12Z" fill="black"/>
<path d="M211.9 12H203.945V112H211.9V12Z" fill="black"/>
<path d="M223.834 12H215.878V112H223.834V12Z" fill="black"/>
<path d="M239.747 12H231.791V112H239.747V12Z" fill="black"/>
<path d="M251.68 12H243.724V112H251.68V12Z" fill="black"/>
<path d="M263.613 12H259.635V112H263.613V12Z" fill="black"/>
<path d="M279.526 12H275.548V112H279.526V12Z" fill="black"/>
<path d="M295.437 12H287.481V112H295.437V12Z" fill="black"/>
<path d="M307.372 12H299.416V112H307.372V12Z" fill="black"/>
<path d="M323.283 12H315.327V112H323.283V12Z" fill="black"/>
<path d="M335.216 12H327.26V112H335.216V12Z" fill="black"/>
<path d="M347.151 12H343.173V112H347.151V12Z" fill="black"/>
<path d="M355.106 12H351.128V112H355.106V12Z" fill="black"/>
<path d="M267.2 134V133.233L270.081 130.08C270.419 129.71 270.697 129.389 270.916 129.116C271.135 128.841 271.297 128.582 271.402 128.341C271.51 128.097 271.564 127.841 271.564 127.574C271.564 127.267 271.49 127.001 271.342 126.777C271.197 126.553 270.999 126.379 270.746 126.257C270.493 126.135 270.209 126.074 269.893 126.074C269.558 126.074 269.266 126.143 269.016 126.283C268.768 126.419 268.577 126.611 268.44 126.858C268.307 127.105 268.24 127.395 268.24 127.727H267.234C267.234 127.216 267.352 126.767 267.588 126.381C267.824 125.994 268.145 125.693 268.551 125.477C268.96 125.261 269.419 125.153 269.928 125.153C270.439 125.153 270.892 125.261 271.287 125.477C271.682 125.693 271.991 125.984 272.216 126.351C272.44 126.717 272.553 127.125 272.553 127.574C272.553 127.895 272.494 128.209 272.378 128.516C272.264 128.82 272.065 129.159 271.781 129.534C271.5 129.906 271.109 130.361 270.609 130.898L268.649 132.994V133.062H272.706V134H267.2ZM274.466 134V133.233L277.347 130.08C277.685 129.71 277.963 129.389 278.182 129.116C278.401 128.841 278.563 128.582 278.668 128.341C278.776 128.097 278.83 127.841 278.83 127.574C278.83 127.267 278.756 127.001 278.608 126.777C278.463 126.553 278.264 126.379 278.011 126.257C277.759 126.135 277.474 126.074 277.159 126.074C276.824 126.074 276.531 126.143 276.281 126.283C276.034 126.419 275.842 126.611 275.706 126.858C275.572 127.105 275.506 127.395 275.506 127.727H274.5C274.5 127.216 274.618 126.767 274.854 126.381C275.089 125.994 275.411 125.693 275.817 125.477C276.226 125.261 276.685 125.153 277.193 125.153C277.705 125.153 278.158 125.261 278.553 125.477C278.947 125.693 279.257 125.984 279.482 126.351C279.706 126.717 279.818 127.125 279.818 127.574C279.818 127.895 279.76 128.209 279.643 128.516C279.53 128.82 279.331 129.159 279.047 129.534C278.766 129.906 278.375 130.361 277.875 130.898L275.915 132.994V133.062H279.972V134H274.466ZM282.004 134L285.908 126.278V126.21H281.408V125.273H286.999V126.261L283.112 134H282.004ZM288.587 134V133.233L291.468 130.08C291.806 129.71 292.084 129.389 292.303 129.116C292.522 128.841 292.684 128.582 292.789 128.341C292.897 128.097 292.951 127.841 292.951 127.574C292.951 127.267 292.877 127.001 292.729 126.777C292.584 126.553 292.385 126.379 292.132 126.257C291.88 126.135 291.596 126.074 291.28 126.074C290.945 126.074 290.652 126.143 290.402 126.283C290.155 126.419 289.963 126.611 289.827 126.858C289.694 127.105 289.627 127.395 289.627 127.727H288.621C288.621 127.216 288.739 126.767 288.975 126.381C289.211 125.994 289.532 125.693 289.938 125.477C290.347 125.261 290.806 125.153 291.314 125.153C291.826 125.153 292.279 125.261 292.674 125.477C293.069 125.693 293.378 125.984 293.603 126.351C293.827 126.717 293.939 127.125 293.939 127.574C293.939 127.895 293.881 128.209 293.765 128.516C293.651 128.82 293.452 129.159 293.168 129.534C292.887 129.906 292.496 130.361 291.996 130.898L290.036 132.994V133.062H294.093V134H288.587ZM295.853 134V133.233L298.733 130.08C299.071 129.71 299.35 129.389 299.569 129.116C299.787 128.841 299.949 128.582 300.054 128.341C300.162 128.097 300.216 127.841 300.216 127.574C300.216 127.267 300.142 127.001 299.995 126.777C299.85 126.553 299.651 126.379 299.398 126.257C299.145 126.135 298.861 126.074 298.546 126.074C298.211 126.074 297.918 126.143 297.668 126.283C297.421 126.419 297.229 126.611 297.093 126.858C296.959 127.105 296.892 127.395 296.892 127.727H295.887C295.887 127.216 296.005 126.767 296.24 126.381C296.476 125.994 296.797 125.693 297.203 125.477C297.613 125.261 298.071 125.153 298.58 125.153C299.091 125.153 299.544 125.261 299.939 125.477C300.334 125.693 300.644 125.984 300.868 126.351C301.093 126.717 301.205 127.125 301.205 127.574C301.205 127.895 301.147 128.209 301.03 128.516C300.917 128.82 300.718 129.159 300.434 129.534C300.152 129.906 299.762 130.361 299.262 130.898L297.301 132.994V133.062H301.358V134H295.853ZM306.016 134.119C305.658 134.114 305.3 134.045 304.942 133.915C304.584 133.784 304.257 133.564 303.962 133.254C303.667 132.942 303.429 132.52 303.25 131.989C303.071 131.455 302.982 130.784 302.982 129.977C302.982 129.205 303.054 128.52 303.199 127.923C303.344 127.324 303.554 126.82 303.83 126.411C304.105 125.999 304.438 125.686 304.827 125.473C305.219 125.26 305.661 125.153 306.152 125.153C306.641 125.153 307.076 125.251 307.456 125.447C307.84 125.641 308.152 125.911 308.394 126.257C308.635 126.604 308.792 127.003 308.863 127.455H307.823C307.726 127.062 307.539 126.737 307.26 126.479C306.982 126.22 306.613 126.091 306.152 126.091C305.476 126.091 304.944 126.385 304.554 126.973C304.168 127.561 303.973 128.386 303.971 129.449H304.039C304.198 129.207 304.387 129.001 304.605 128.831C304.827 128.658 305.071 128.524 305.338 128.43C305.605 128.337 305.888 128.29 306.186 128.29C306.686 128.29 307.144 128.415 307.559 128.665C307.973 128.912 308.306 129.254 308.556 129.692C308.806 130.126 308.931 130.625 308.931 131.188C308.931 131.727 308.81 132.222 308.569 132.67C308.327 133.116 307.988 133.472 307.55 133.736C307.115 133.997 306.604 134.125 306.016 134.119ZM306.016 133.182C306.374 133.182 306.695 133.092 306.979 132.913C307.266 132.734 307.492 132.494 307.657 132.193C307.824 131.892 307.908 131.557 307.908 131.188C307.908 130.827 307.827 130.499 307.665 130.203C307.506 129.905 307.286 129.668 307.005 129.491C306.726 129.315 306.408 129.227 306.05 129.227C305.78 129.227 305.529 129.281 305.296 129.389C305.063 129.494 304.858 129.639 304.682 129.824C304.509 130.009 304.373 130.22 304.273 130.459C304.174 130.695 304.124 130.943 304.124 131.205C304.124 131.551 304.205 131.875 304.367 132.176C304.532 132.477 304.756 132.72 305.04 132.905C305.327 133.089 305.652 133.182 306.016 133.182Z" fill="black"/>
<path d="M363.084 12H359.106V124H363.084V12Z" fill="black"/>
<path d="M371.04 12H367.062V124H371.04V12Z" fill="black"/>
</svg>
