<svg width="30" height="26" viewBox="0 0 30 26" fill="none" xmlns="http://www.w3.org/2000/svg">
<path fill-rule="evenodd" clip-rule="evenodd" d="M19.3068 1.73962C20.7377 2.30912 21.1754 4.29246 21.7605 4.92996C22.3456 5.56746 23.1828 5.78421 23.6461 5.78421C26.1082 5.78421 28.1043 7.78029 28.1043 10.241V18.4506C28.1043 21.7515 25.4268 24.429 22.126 24.429H7.87433C4.57208 24.429 1.896 21.7515 1.896 18.4506V10.241C1.896 7.78029 3.89208 5.78421 6.35425 5.78421C6.81608 5.78421 7.65333 5.56746 8.23983 4.92996C8.82491 4.29246 9.26125 2.30912 10.6921 1.73962C12.1243 1.17012 17.876 1.17012 19.3068 1.73962Z" stroke="#F97F25" stroke-width="2.125" stroke-linecap="round" stroke-linejoin="round"/>
<path d="M22.7855 9.45833H22.7982" stroke="#F97F25" stroke-width="2.83333" stroke-linecap="round" stroke-linejoin="round"/>
<path fill-rule="evenodd" clip-rule="evenodd" d="M19.5033 14.5983C19.5033 12.1106 17.4873 10.0947 14.9997 10.0947C12.512 10.0947 10.4961 12.1106 10.4961 14.5983C10.4961 17.086 12.512 19.1019 14.9997 19.1019C17.4873 19.1019 19.5033 17.086 19.5033 14.5983Z" stroke="#F97F25" stroke-width="2.125" stroke-linecap="round" stroke-linejoin="round"/>
</svg>
