<svg width="424" height="287" viewBox="0 0 424 287" fill="none" xmlns="http://www.w3.org/2000/svg">
<g filter="url(#filter0_d_887_19945)">
<g clip-path="url(#clip0_887_19945)">
<rect x="20" y="16" width="380" height="239" rx="44" fill="url(#paint0_linear_887_19945)"/>
<g opacity="0.32">
<path opacity="0.1" d="M262.831 -16.3613L391.137 60.009V189.137L262.831 112.075V-16.3613Z" fill="white"/>
<path opacity="0.2" d="M518.993 -16.2832L390.691 60.0071V189L518.993 112.019V-16.2832Z" fill="white"/>
<path opacity="0.3" d="M262.831 -15.938L391.137 -93L519.442 -15.938V-15.3616L391.137 61.7004L262.831 -15.3616V-15.938Z" fill="white"/>
<path opacity="0.1" d="M-99 56.8926L29.3056 133.263V262.391L-99 185.329V56.8926Z" fill="white"/>
<path opacity="0.2" d="M157.162 56.9707L28.8601 133.261V262.254L157.162 185.273V56.9707Z" fill="white"/>
<path opacity="0.3" d="M-99 57.3159L29.3056 -19.7461L157.611 57.3159V57.8923L29.3056 134.954L-99 57.8923V57.3159Z" fill="white"/>
<path opacity="0.1" d="M209.111 15.7607L262.609 47.6037V101.444L209.111 69.3131V15.7607Z" fill="white"/>
<path opacity="0.2" d="M315.919 15.793L262.423 47.6026V101.387L315.919 69.2891V15.793Z" fill="white"/>
<path opacity="0.3" d="M209.111 15.9371L262.609 -16.1943L316.107 15.9371V16.1774L262.609 48.3088L209.111 16.1774V15.9371Z" fill="white"/>
<path opacity="0.1" d="M253.951 221.316L307.449 253.159V307L253.951 274.869V221.316Z" fill="white"/>
<path opacity="0.2" d="M360.759 221.349L307.263 253.158V306.942L360.759 274.845V221.349Z" fill="white"/>
<path opacity="0.3" d="M253.951 221.493L307.449 189.361L360.947 221.493V221.733L307.449 253.864L253.951 221.733V221.493Z" fill="white"/>
</g>
<path d="M344.259 57.8268L343.912 56.0871H340.036L339.42 57.8144L336.313 57.8206C337.792 54.2533 339.274 50.6873 340.759 47.1227C341.012 46.518 341.461 46.2103 342.122 46.2134C342.628 46.218 343.453 46.218 344.598 46.2149L347 57.8222L344.259 57.8268ZM340.909 53.7041H343.406L342.474 49.3433L340.909 53.7041ZM320.884 46.2119L324.008 46.2149L319.179 57.8284L316.017 57.8253C315.222 54.7577 314.437 51.6876 313.661 48.6149C313.507 48.0026 313.202 47.5742 312.615 47.3716C312.092 47.1907 311.221 46.9124 310 46.5335V46.2165H314.99C315.854 46.2165 316.358 46.6356 316.52 47.4954C316.683 48.3567 317.093 50.5495 317.753 54.0737L320.884 46.2119ZM328.3 46.2149L325.83 57.8253L322.858 57.8222L325.324 46.2119L328.3 46.2149ZM334.327 46C335.217 46 336.338 46.2784 336.982 46.5335L336.461 48.9412C335.878 48.7062 334.919 48.3892 334.113 48.4C332.942 48.4201 332.217 48.9134 332.217 49.3866C332.217 50.1567 333.475 50.5448 334.77 51.3861C336.248 52.3448 336.443 53.2062 336.424 54.1418C336.404 56.084 334.77 58 331.323 58C329.75 57.9768 329.183 57.8438 327.9 57.3876L328.443 54.8747C329.749 55.4237 330.302 55.5985 331.418 55.5985C332.44 55.5985 333.318 55.184 333.325 54.4619C333.332 53.9485 333.017 53.6933 331.87 53.0593C330.723 52.4237 329.114 51.5438 329.135 49.7778C329.161 47.517 331.297 46 334.329 46H334.327Z" fill="#FEFEFE"/>
<path opacity="0.4" d="M350.459 225C360.414 225 368.484 216.929 368.484 206.974C368.484 197.018 360.414 188.948 350.459 188.948C340.503 188.948 332.433 197.018 332.433 206.974C332.433 216.929 340.503 225 350.459 225Z" fill="white"/>
<path opacity="0.859468" d="M328.026 225C337.982 225 346.052 216.929 346.052 206.974C346.052 197.018 337.982 188.948 328.026 188.948C318.071 188.948 310 197.018 310 206.974C310 216.929 318.071 225 328.026 225Z" fill="white"/>
<path d="M50.96 63L53.136 51.8H54.752L57.48 58.976L60.208 51.8H61.824L64 63H62.008L60.664 56.072L58.144 62.744H56.808L54.288 56.072L52.952 63H50.96ZM68.7894 63.208C68.0534 63.208 67.3814 63.0187 66.7734 62.64C66.1707 62.2613 65.688 61.7547 65.3254 61.12C64.968 60.48 64.7894 59.7733 64.7894 59C64.7894 58.4133 64.8934 57.8667 65.1014 57.36C65.3094 56.848 65.5947 56.4 65.9574 56.016C66.3254 55.6267 66.752 55.3227 67.2374 55.104C67.7227 54.8853 68.24 54.776 68.7894 54.776C69.5254 54.776 70.1947 54.9653 70.7974 55.344C71.4054 55.7227 71.888 56.232 72.2454 56.872C72.608 57.512 72.7894 58.2213 72.7894 59C72.7894 59.5813 72.6854 60.1253 72.4774 60.632C72.2694 61.1387 71.9814 61.5867 71.6134 61.976C71.2507 62.36 70.8267 62.6613 70.3414 62.88C69.8614 63.0987 69.344 63.208 68.7894 63.208ZM68.7894 61.256C69.1787 61.256 69.528 61.152 69.8374 60.944C70.1467 60.736 70.3894 60.4613 70.5654 60.12C70.7467 59.7787 70.8374 59.4053 70.8374 59C70.8374 58.584 70.744 58.2053 70.5574 57.864C70.376 57.5173 70.128 57.2427 69.8134 57.04C69.504 56.832 69.1627 56.728 68.7894 56.728C68.4054 56.728 68.0587 56.832 67.7494 57.04C67.44 57.248 67.1947 57.5253 67.0134 57.872C66.832 58.2187 66.7414 58.5947 66.7414 59C66.7414 59.4213 66.8347 59.8027 67.0214 60.144C67.208 60.4853 67.456 60.7573 67.7654 60.96C68.08 61.1573 68.4214 61.256 68.7894 61.256ZM79.2262 60.592L80.9862 61.544C80.6182 62.0453 80.1569 62.448 79.6023 62.752C79.0476 63.056 78.4422 63.208 77.7862 63.208C77.0502 63.208 76.3782 63.0187 75.7702 62.64C75.1676 62.2613 74.6849 61.7547 74.3222 61.12C73.9649 60.48 73.7862 59.7733 73.7862 59C73.7862 58.4133 73.8902 57.8667 74.0982 57.36C74.3062 56.848 74.5916 56.4 74.9542 56.016C75.3222 55.6267 75.7489 55.3227 76.2342 55.104C76.7196 54.8853 77.2369 54.776 77.7862 54.776C78.4422 54.776 79.0476 54.928 79.6023 55.232C80.1569 55.536 80.6182 55.944 80.9862 56.456L79.2262 57.4C79.0396 57.1867 78.8182 57.0213 78.5622 56.904C78.3116 56.7867 78.0529 56.728 77.7862 56.728C77.4022 56.728 77.0556 56.8347 76.7462 57.048C76.4369 57.256 76.1916 57.5333 76.0102 57.88C75.8289 58.2213 75.7382 58.5947 75.7382 59C75.7382 59.4 75.8289 59.7733 76.0102 60.12C76.1916 60.4613 76.4369 60.736 76.7462 60.944C77.0556 61.152 77.4022 61.256 77.7862 61.256C78.0636 61.256 78.3276 61.1973 78.5782 61.08C78.8289 60.9573 79.0449 60.7947 79.2262 60.592ZM88.4045 55H90.3565V63H88.4045L88.3165 62.008C88.0978 62.3653 87.8072 62.656 87.4445 62.88C87.0872 63.0987 86.6632 63.208 86.1725 63.208C85.5805 63.208 85.0258 63.096 84.5085 62.872C83.9912 62.648 83.5352 62.3387 83.1405 61.944C82.7512 61.5493 82.4445 61.0933 82.2205 60.576C82.0018 60.0587 81.8925 59.504 81.8925 58.912C81.8925 58.3413 81.9965 57.8053 82.2045 57.304C82.4178 56.8027 82.7138 56.3627 83.0925 55.984C83.4712 55.6053 83.9085 55.3093 84.4045 55.096C84.9005 54.8827 85.4338 54.776 86.0045 54.776C86.5325 54.776 87.0045 54.8933 87.4205 55.128C87.8418 55.3627 88.1992 55.6613 88.4925 56.024L88.4045 55ZM86.1245 61.328C86.5405 61.328 86.9085 61.224 87.2285 61.016C87.5485 60.808 87.7992 60.528 87.9805 60.176C88.1618 59.8187 88.2525 59.4267 88.2525 59C88.2525 58.568 88.1618 58.176 87.9805 57.824C87.7992 57.4667 87.5458 57.184 87.2205 56.976C86.9005 56.768 86.5352 56.664 86.1245 56.664C85.7138 56.664 85.3378 56.7707 84.9965 56.984C84.6605 57.192 84.3912 57.472 84.1885 57.824C83.9912 58.176 83.8925 58.568 83.8925 59C83.8925 59.432 83.9938 59.824 84.1965 60.176C84.3992 60.528 84.6685 60.808 85.0045 61.016C85.3458 61.224 85.7192 61.328 86.1245 61.328ZM92.1586 63L92.1506 55H94.1026L94.1106 55.712C94.3826 55.424 94.708 55.1973 95.0866 55.032C95.4653 54.8613 95.8733 54.776 96.3106 54.776C96.604 54.776 96.8973 54.8187 97.1906 54.904L96.4226 56.872C96.22 56.792 96.0173 56.752 95.8146 56.752C95.5 56.752 95.212 56.8293 94.9506 56.984C94.6946 57.1333 94.4893 57.3387 94.3346 57.6C94.1853 57.856 94.1106 58.1413 94.1106 58.456V63H92.1586ZM103.961 51H105.913V63H103.961V62C103.705 62.3573 103.382 62.648 102.993 62.872C102.604 63.096 102.153 63.208 101.641 63.208C101.06 63.208 100.516 63.0987 100.009 62.88C99.5025 62.6613 99.0545 62.36 98.6651 61.976C98.2811 61.5867 97.9798 61.1387 97.7611 60.632C97.5425 60.1253 97.4331 59.5813 97.4331 59C97.4331 58.4187 97.5425 57.8747 97.7611 57.368C97.9798 56.8613 98.2811 56.416 98.6651 56.032C99.0545 55.6427 99.5025 55.3387 100.009 55.12C100.516 54.9013 101.06 54.792 101.641 54.792C102.153 54.792 102.604 54.904 102.993 55.128C103.382 55.3467 103.705 55.6373 103.961 56V51ZM101.665 61.328C102.081 61.328 102.449 61.224 102.769 61.016C103.089 60.808 103.34 60.528 103.521 60.176C103.702 59.8187 103.793 59.4267 103.793 59C103.793 58.568 103.702 58.176 103.521 57.824C103.34 57.4667 103.086 57.184 102.761 56.976C102.441 56.768 102.076 56.664 101.665 56.664C101.254 56.664 100.878 56.7707 100.537 56.984C100.201 57.192 99.9318 57.472 99.7291 57.824C99.5318 58.176 99.4331 58.568 99.4331 59C99.4331 59.432 99.5345 59.824 99.7371 60.176C99.9398 60.528 100.209 60.808 100.545 61.016C100.886 61.224 101.26 61.328 101.665 61.328Z" fill="white"/>
<path d="M55.928 135.608C54.808 135.608 53.856 135.224 53.072 134.456C52.304 133.672 51.92 132.72 51.92 131.6C51.92 130.48 52.304 129.536 53.072 128.768C53.856 127.984 54.808 127.592 55.928 127.592C57.048 127.592 58 127.984 58.784 128.768C59.568 129.536 59.96 130.48 59.96 131.6C59.96 132.72 59.568 133.672 58.784 134.456C58 135.224 57.048 135.608 55.928 135.608ZM67.7874 135.608C66.6674 135.608 65.7154 135.224 64.9314 134.456C64.1634 133.672 63.7794 132.72 63.7794 131.6C63.7794 130.48 64.1634 129.536 64.9314 128.768C65.7154 127.984 66.6674 127.592 67.7874 127.592C68.9074 127.592 69.8594 127.984 70.6434 128.768C71.4274 129.536 71.8194 130.48 71.8194 131.6C71.8194 132.72 71.4274 133.672 70.6434 134.456C69.8594 135.224 68.9074 135.608 67.7874 135.608ZM79.6468 135.608C78.5268 135.608 77.5748 135.224 76.7908 134.456C76.0228 133.672 75.6388 132.72 75.6388 131.6C75.6388 130.48 76.0228 129.536 76.7908 128.768C77.5748 127.984 78.5268 127.592 79.6468 127.592C80.7668 127.592 81.7188 127.984 82.5028 128.768C83.2868 129.536 83.6788 130.48 83.6788 131.6C83.6788 132.72 83.2868 133.672 82.5028 134.456C81.7188 135.224 80.7668 135.608 79.6468 135.608ZM91.5061 135.608C90.3861 135.608 89.4341 135.224 88.6501 134.456C87.8821 133.672 87.4981 132.72 87.4981 131.6C87.4981 130.48 87.8821 129.536 88.6501 128.768C89.4341 127.984 90.3861 127.592 91.5061 127.592C92.6261 127.592 93.5781 127.984 94.3621 128.768C95.1461 129.536 95.5381 130.48 95.5381 131.6C95.5381 132.72 95.1461 133.672 94.3621 134.456C93.5781 135.224 92.6261 135.608 91.5061 135.608ZM114.897 135.608C113.777 135.608 112.825 135.224 112.041 134.456C111.273 133.672 110.889 132.72 110.889 131.6C110.889 130.48 111.273 129.536 112.041 128.768C112.825 127.984 113.777 127.592 114.897 127.592C116.017 127.592 116.969 127.984 117.753 128.768C118.537 129.536 118.929 130.48 118.929 131.6C118.929 132.72 118.537 133.672 117.753 134.456C116.969 135.224 116.017 135.608 114.897 135.608ZM126.756 135.608C125.636 135.608 124.684 135.224 123.9 134.456C123.132 133.672 122.748 132.72 122.748 131.6C122.748 130.48 123.132 129.536 123.9 128.768C124.684 127.984 125.636 127.592 126.756 127.592C127.876 127.592 128.828 127.984 129.612 128.768C130.396 129.536 130.788 130.48 130.788 131.6C130.788 132.72 130.396 133.672 129.612 134.456C128.828 135.224 127.876 135.608 126.756 135.608ZM138.616 135.608C137.496 135.608 136.544 135.224 135.76 134.456C134.992 133.672 134.608 132.72 134.608 131.6C134.608 130.48 134.992 129.536 135.76 128.768C136.544 127.984 137.496 127.592 138.616 127.592C139.736 127.592 140.688 127.984 141.472 128.768C142.256 129.536 142.648 130.48 142.648 131.6C142.648 132.72 142.256 133.672 141.472 134.456C140.688 135.224 139.736 135.608 138.616 135.608ZM150.475 135.608C149.355 135.608 148.403 135.224 147.619 134.456C146.851 133.672 146.467 132.72 146.467 131.6C146.467 130.48 146.851 129.536 147.619 128.768C148.403 127.984 149.355 127.592 150.475 127.592C151.595 127.592 152.547 127.984 153.331 128.768C154.115 129.536 154.507 130.48 154.507 131.6C154.507 132.72 154.115 133.672 153.331 134.456C152.547 135.224 151.595 135.608 150.475 135.608ZM173.866 135.608C172.746 135.608 171.794 135.224 171.01 134.456C170.242 133.672 169.858 132.72 169.858 131.6C169.858 130.48 170.242 129.536 171.01 128.768C171.794 127.984 172.746 127.592 173.866 127.592C174.986 127.592 175.938 127.984 176.722 128.768C177.506 129.536 177.898 130.48 177.898 131.6C177.898 132.72 177.506 133.672 176.722 134.456C175.938 135.224 174.986 135.608 173.866 135.608ZM185.725 135.608C184.605 135.608 183.653 135.224 182.869 134.456C182.101 133.672 181.717 132.72 181.717 131.6C181.717 130.48 182.101 129.536 182.869 128.768C183.653 127.984 184.605 127.592 185.725 127.592C186.845 127.592 187.797 127.984 188.581 128.768C189.365 129.536 189.757 130.48 189.757 131.6C189.757 132.72 189.365 133.672 188.581 134.456C187.797 135.224 186.845 135.608 185.725 135.608ZM197.584 135.608C196.464 135.608 195.512 135.224 194.728 134.456C193.96 133.672 193.576 132.72 193.576 131.6C193.576 130.48 193.96 129.536 194.728 128.768C195.512 127.984 196.464 127.592 197.584 127.592C198.704 127.592 199.656 127.984 200.44 128.768C201.224 129.536 201.616 130.48 201.616 131.6C201.616 132.72 201.224 133.672 200.44 134.456C199.656 135.224 198.704 135.608 197.584 135.608ZM209.444 135.608C208.324 135.608 207.372 135.224 206.588 134.456C205.82 133.672 205.436 132.72 205.436 131.6C205.436 130.48 205.82 129.536 206.588 128.768C207.372 127.984 208.324 127.592 209.444 127.592C210.564 127.592 211.516 127.984 212.3 128.768C213.084 129.536 213.476 130.48 213.476 131.6C213.476 132.72 213.084 133.672 212.3 134.456C211.516 135.224 210.564 135.608 209.444 135.608ZM232.834 135.608C231.714 135.608 230.762 135.224 229.978 134.456C229.21 133.672 228.826 132.72 228.826 131.6C228.826 130.48 229.21 129.536 229.978 128.768C230.762 127.984 231.714 127.592 232.834 127.592C233.954 127.592 234.906 127.984 235.69 128.768C236.474 129.536 236.866 130.48 236.866 131.6C236.866 132.72 236.474 133.672 235.69 134.456C234.906 135.224 233.954 135.608 232.834 135.608ZM244.694 135.608C243.574 135.608 242.622 135.224 241.838 134.456C241.07 133.672 240.686 132.72 240.686 131.6C240.686 130.48 241.07 129.536 241.838 128.768C242.622 127.984 243.574 127.592 244.694 127.592C245.814 127.592 246.766 127.984 247.55 128.768C248.334 129.536 248.726 130.48 248.726 131.6C248.726 132.72 248.334 133.672 247.55 134.456C246.766 135.224 245.814 135.608 244.694 135.608ZM256.553 135.608C255.433 135.608 254.481 135.224 253.697 134.456C252.929 133.672 252.545 132.72 252.545 131.6C252.545 130.48 252.929 129.536 253.697 128.768C254.481 127.984 255.433 127.592 256.553 127.592C257.673 127.592 258.625 127.984 259.409 128.768C260.193 129.536 260.585 130.48 260.585 131.6C260.585 132.72 260.193 133.672 259.409 134.456C258.625 135.224 257.673 135.608 256.553 135.608ZM268.412 135.608C267.292 135.608 266.34 135.224 265.556 134.456C264.788 133.672 264.404 132.72 264.404 131.6C264.404 130.48 264.788 129.536 265.556 128.768C266.34 127.984 267.292 127.592 268.412 127.592C269.532 127.592 270.484 127.984 271.268 128.768C272.052 129.536 272.444 130.48 272.444 131.6C272.444 132.72 272.052 133.672 271.268 134.456C270.484 135.224 269.532 135.608 268.412 135.608Z" fill="white"/>
<path d="M53.84 200.13C53.3667 200.13 52.9217 200.037 52.505 199.85C52.0883 199.66 51.7217 199.4 51.405 199.07C51.0917 198.737 50.845 198.35 50.665 197.91C50.4883 197.47 50.4 197 50.4 196.5C50.4 196 50.4883 195.53 50.665 195.09C50.845 194.65 51.0917 194.265 51.405 193.935C51.7217 193.602 52.0883 193.342 52.505 193.155C52.9217 192.965 53.3667 192.87 53.84 192.87C54.4067 192.87 54.9283 193.002 55.405 193.265C55.8817 193.528 56.2767 193.878 56.59 194.315L55.845 194.715C55.6117 194.408 55.3167 194.165 54.96 193.985C54.6067 193.802 54.2333 193.71 53.84 193.71C53.4767 193.71 53.1367 193.783 52.82 193.93C52.5067 194.077 52.2317 194.278 51.995 194.535C51.7583 194.792 51.5733 195.088 51.44 195.425C51.3067 195.762 51.24 196.12 51.24 196.5C51.24 196.883 51.3067 197.243 51.44 197.58C51.5767 197.917 51.7633 198.213 52 198.47C52.24 198.727 52.5167 198.928 52.83 199.075C53.1467 199.218 53.4833 199.29 53.84 199.29C54.2467 199.29 54.6233 199.198 54.97 199.015C55.32 198.828 55.6117 198.585 55.845 198.285L56.59 198.69C56.2767 199.127 55.8817 199.477 55.405 199.74C54.9283 200 54.4067 200.13 53.84 200.13ZM61.5387 195H62.3787V200H61.5387L61.5038 199.155C61.3471 199.445 61.1304 199.68 60.8538 199.86C60.5804 200.04 60.2537 200.13 59.8737 200.13C59.5071 200.13 59.1637 200.062 58.8437 199.925C58.5237 199.785 58.2404 199.593 57.9937 199.35C57.7504 199.103 57.5604 198.82 57.4237 198.5C57.2871 198.18 57.2187 197.835 57.2187 197.465C57.2187 197.108 57.2854 196.772 57.4187 196.455C57.5521 196.138 57.7371 195.862 57.9737 195.625C58.2137 195.385 58.4904 195.198 58.8037 195.065C59.1171 194.928 59.4537 194.86 59.8138 194.86C60.2071 194.86 60.5521 194.953 60.8487 195.14C61.1454 195.323 61.3854 195.562 61.5688 195.855L61.5387 195ZM59.8587 199.315C60.1887 199.315 60.4738 199.235 60.7138 199.075C60.9571 198.912 61.1437 198.692 61.2738 198.415C61.4071 198.138 61.4738 197.833 61.4738 197.5C61.4738 197.16 61.4071 196.853 61.2738 196.58C61.1404 196.303 60.9521 196.085 60.7087 195.925C60.4688 195.762 60.1854 195.68 59.8587 195.68C59.5287 195.68 59.2287 195.762 58.9587 195.925C58.6887 196.088 58.4737 196.308 58.3137 196.585C58.1571 196.858 58.0787 197.163 58.0787 197.5C58.0787 197.837 58.1604 198.143 58.3237 198.42C58.4871 198.693 58.7037 198.912 58.9737 199.075C59.2437 199.235 59.5387 199.315 59.8587 199.315ZM63.5781 200V195H64.4181V195.625C64.5948 195.392 64.8181 195.207 65.0881 195.07C65.3581 194.93 65.6515 194.86 65.9681 194.86C66.1615 194.86 66.3481 194.885 66.5281 194.935L66.1881 195.775C66.0515 195.732 65.9181 195.71 65.7881 195.71C65.5381 195.71 65.3081 195.772 65.0981 195.895C64.8915 196.015 64.7265 196.178 64.6031 196.385C64.4798 196.592 64.4181 196.822 64.4181 197.075V200H63.5781ZM71.1137 192.5H71.9537V200H71.1137V199.15C70.9437 199.443 70.7153 199.68 70.4287 199.86C70.142 200.04 69.8053 200.13 69.4187 200.13C69.0553 200.13 68.7153 200.062 68.3987 199.925C68.082 199.788 67.802 199.6 67.5587 199.36C67.3187 199.117 67.1303 198.837 66.9937 198.52C66.857 198.203 66.7887 197.863 66.7887 197.5C66.7887 197.137 66.857 196.797 66.9937 196.48C67.1303 196.16 67.3187 195.88 67.5587 195.64C67.802 195.397 68.082 195.207 68.3987 195.07C68.7153 194.933 69.0553 194.865 69.4187 194.865C69.8053 194.865 70.142 194.955 70.4287 195.135C70.7153 195.315 70.9437 195.552 71.1137 195.845V192.5ZM69.4287 199.315C69.7587 199.315 70.0437 199.235 70.2837 199.075C70.527 198.912 70.7137 198.692 70.8437 198.415C70.977 198.138 71.0437 197.833 71.0437 197.5C71.0437 197.16 70.977 196.853 70.8437 196.58C70.7103 196.303 70.522 196.085 70.2787 195.925C70.0387 195.762 69.7553 195.68 69.4287 195.68C69.0987 195.68 68.7987 195.762 68.5287 195.925C68.262 196.088 68.0487 196.308 67.8887 196.585C67.7287 196.858 67.6487 197.163 67.6487 197.5C67.6487 197.837 67.7303 198.143 67.8937 198.42C68.057 198.693 68.2737 198.912 68.5437 199.075C68.8137 199.235 69.1087 199.315 69.4287 199.315ZM80.2605 193H81.1005V200H80.2605V196.67H76.7955V200H75.9555V193H76.7955V195.83H80.2605V193ZM84.6543 200.13C84.1943 200.13 83.7743 200.012 83.3943 199.775C83.0176 199.538 82.716 199.222 82.4893 198.825C82.266 198.425 82.1543 197.983 82.1543 197.5C82.1543 197.133 82.2193 196.792 82.3493 196.475C82.4793 196.155 82.6576 195.875 82.8843 195.635C83.1143 195.392 83.381 195.202 83.6843 195.065C83.9876 194.928 84.311 194.86 84.6543 194.86C85.1143 194.86 85.5326 194.978 85.9093 195.215C86.2893 195.452 86.591 195.77 86.8143 196.17C87.041 196.57 87.1543 197.013 87.1543 197.5C87.1543 197.863 87.0893 198.203 86.9593 198.52C86.8293 198.837 86.6493 199.117 86.4193 199.36C86.1926 199.6 85.9276 199.788 85.6243 199.925C85.3243 200.062 85.001 200.13 84.6543 200.13ZM84.6543 199.29C84.9676 199.29 85.2493 199.208 85.4993 199.045C85.7526 198.878 85.951 198.66 86.0943 198.39C86.241 198.117 86.3143 197.82 86.3143 197.5C86.3143 197.173 86.2393 196.873 86.0893 196.6C85.9426 196.327 85.7443 196.108 85.4943 195.945C85.2443 195.782 84.9643 195.7 84.6543 195.7C84.341 195.7 84.0593 195.783 83.8093 195.95C83.5593 196.113 83.361 196.332 83.2143 196.605C83.0676 196.878 82.9943 197.177 82.9943 197.5C82.9943 197.833 83.0693 198.137 83.2193 198.41C83.3693 198.68 83.571 198.895 83.8243 199.055C84.0776 199.212 84.3543 199.29 84.6543 199.29ZM88.1328 200V192.5H88.9728V200H88.1328ZM94.35 192.5H95.19V200H94.35V199.15C94.18 199.443 93.9517 199.68 93.665 199.86C93.3783 200.04 93.0417 200.13 92.655 200.13C92.2917 200.13 91.9517 200.062 91.635 199.925C91.3183 199.788 91.0383 199.6 90.795 199.36C90.555 199.117 90.3667 198.837 90.23 198.52C90.0933 198.203 90.025 197.863 90.025 197.5C90.025 197.137 90.0933 196.797 90.23 196.48C90.3667 196.16 90.555 195.88 90.795 195.64C91.0383 195.397 91.3183 195.207 91.635 195.07C91.9517 194.933 92.2917 194.865 92.655 194.865C93.0417 194.865 93.3783 194.955 93.665 195.135C93.9517 195.315 94.18 195.552 94.35 195.845V192.5ZM92.665 199.315C92.995 199.315 93.28 199.235 93.52 199.075C93.7633 198.912 93.95 198.692 94.08 198.415C94.2133 198.138 94.28 197.833 94.28 197.5C94.28 197.16 94.2133 196.853 94.08 196.58C93.9467 196.303 93.7583 196.085 93.515 195.925C93.275 195.762 92.9917 195.68 92.665 195.68C92.335 195.68 92.035 195.762 91.765 195.925C91.4983 196.088 91.285 196.308 91.125 196.585C90.965 196.858 90.885 197.163 90.885 197.5C90.885 197.837 90.9667 198.143 91.13 198.42C91.2933 198.693 91.51 198.912 91.78 199.075C92.05 199.235 92.345 199.315 92.665 199.315ZM98.7406 200.13C98.2806 200.13 97.8606 200.012 97.4806 199.775C97.104 199.538 96.8023 199.222 96.5756 198.825C96.3523 198.425 96.2406 197.983 96.2406 197.5C96.2406 197.133 96.3056 196.792 96.4356 196.475C96.5656 196.155 96.744 195.875 96.9706 195.635C97.2006 195.392 97.4673 195.202 97.7706 195.065C98.074 194.928 98.3973 194.86 98.7406 194.86C99.1173 194.86 99.4623 194.937 99.7756 195.09C100.092 195.24 100.362 195.45 100.586 195.72C100.812 195.99 100.981 196.303 101.091 196.66C101.204 197.017 101.246 197.398 101.216 197.805H97.1356C97.1756 198.088 97.269 198.342 97.4156 198.565C97.5623 198.785 97.749 198.96 97.9756 199.09C98.2056 199.22 98.4606 199.287 98.7406 199.29C99.0406 199.29 99.3123 199.213 99.5556 199.06C99.799 198.903 99.9956 198.69 100.146 198.42L101.001 198.62C100.801 199.063 100.499 199.427 100.096 199.71C99.6923 199.99 99.2406 200.13 98.7406 200.13ZM97.1106 197.145H100.371C100.344 196.865 100.254 196.61 100.101 196.38C99.9473 196.147 99.7523 195.96 99.5156 195.82C99.279 195.68 99.0206 195.61 98.7406 195.61C98.4606 195.61 98.204 195.678 97.9706 195.815C97.7373 195.952 97.544 196.137 97.3906 196.37C97.2406 196.6 97.1473 196.858 97.1106 197.145ZM102.258 200V195H103.098V195.625C103.275 195.392 103.498 195.207 103.768 195.07C104.038 194.93 104.332 194.86 104.648 194.86C104.842 194.86 105.028 194.885 105.208 194.935L104.868 195.775C104.732 195.732 104.598 195.71 104.468 195.71C104.218 195.71 103.988 195.772 103.778 195.895C103.572 196.015 103.407 196.178 103.283 196.385C103.16 196.592 103.098 196.822 103.098 197.075V200H102.258ZM113.133 196.89V200H112.293V197.075C112.293 196.822 112.231 196.592 112.108 196.385C111.985 196.178 111.82 196.015 111.613 195.895C111.406 195.772 111.176 195.71 110.923 195.71C110.673 195.71 110.443 195.772 110.233 195.895C110.026 196.015 109.861 196.178 109.738 196.385C109.615 196.592 109.553 196.822 109.553 197.075V200H108.713V195H109.553V195.625C109.73 195.392 109.953 195.207 110.223 195.07C110.493 194.93 110.786 194.86 111.103 194.86C111.476 194.86 111.816 194.952 112.123 195.135C112.433 195.315 112.678 195.558 112.858 195.865C113.041 196.172 113.133 196.513 113.133 196.89ZM118.255 195H119.095V200H118.255L118.22 199.155C118.063 199.445 117.847 199.68 117.57 199.86C117.297 200.04 116.97 200.13 116.59 200.13C116.223 200.13 115.88 200.062 115.56 199.925C115.24 199.785 114.957 199.593 114.71 199.35C114.467 199.103 114.277 198.82 114.14 198.5C114.003 198.18 113.935 197.835 113.935 197.465C113.935 197.108 114.002 196.772 114.135 196.455C114.268 196.138 114.453 195.862 114.69 195.625C114.93 195.385 115.207 195.198 115.52 195.065C115.833 194.928 116.17 194.86 116.53 194.86C116.923 194.86 117.268 194.953 117.565 195.14C117.862 195.323 118.102 195.562 118.285 195.855L118.255 195ZM116.575 199.315C116.905 199.315 117.19 199.235 117.43 199.075C117.673 198.912 117.86 198.692 117.99 198.415C118.123 198.138 118.19 197.833 118.19 197.5C118.19 197.16 118.123 196.853 117.99 196.58C117.857 196.303 117.668 196.085 117.425 195.925C117.185 195.762 116.902 195.68 116.575 195.68C116.245 195.68 115.945 195.762 115.675 195.925C115.405 196.088 115.19 196.308 115.03 196.585C114.873 196.858 114.795 197.163 114.795 197.5C114.795 197.837 114.877 198.143 115.04 198.42C115.203 198.693 115.42 198.912 115.69 199.075C115.96 199.235 116.255 199.315 116.575 199.315ZM120.295 200V195H121.135V195.625C121.311 195.392 121.533 195.207 121.8 195.07C122.07 194.93 122.363 194.86 122.68 194.86C123.05 194.86 123.388 194.95 123.695 195.13C124.001 195.31 124.243 195.548 124.42 195.845C124.596 195.548 124.836 195.31 125.14 195.13C125.446 194.95 125.783 194.86 126.15 194.86C126.526 194.86 126.868 194.952 127.175 195.135C127.481 195.315 127.725 195.558 127.905 195.865C128.088 196.172 128.18 196.513 128.18 196.89V200H127.34V197.09C127.34 196.843 127.28 196.615 127.16 196.405C127.04 196.195 126.878 196.027 126.675 195.9C126.471 195.773 126.246 195.71 126 195.71C125.753 195.71 125.528 195.77 125.325 195.89C125.121 196.007 124.96 196.17 124.84 196.38C124.72 196.587 124.66 196.823 124.66 197.09V200H123.82V197.09C123.82 196.823 123.76 196.587 123.64 196.38C123.52 196.17 123.356 196.007 123.15 195.89C122.946 195.77 122.721 195.71 122.475 195.71C122.231 195.71 122.006 195.773 121.8 195.9C121.596 196.027 121.435 196.195 121.315 196.405C121.195 196.615 121.135 196.843 121.135 197.09V200H120.295ZM131.484 200.13C131.024 200.13 130.604 200.012 130.224 199.775C129.847 199.538 129.545 199.222 129.319 198.825C129.095 198.425 128.984 197.983 128.984 197.5C128.984 197.133 129.049 196.792 129.179 196.475C129.309 196.155 129.487 195.875 129.714 195.635C129.944 195.392 130.21 195.202 130.514 195.065C130.817 194.928 131.14 194.86 131.484 194.86C131.86 194.86 132.205 194.937 132.519 195.09C132.835 195.24 133.105 195.45 133.329 195.72C133.555 195.99 133.724 196.303 133.834 196.66C133.947 197.017 133.989 197.398 133.959 197.805H129.879C129.919 198.088 130.012 198.342 130.159 198.565C130.305 198.785 130.492 198.96 130.719 199.09C130.949 199.22 131.204 199.287 131.484 199.29C131.784 199.29 132.055 199.213 132.299 199.06C132.542 198.903 132.739 198.69 132.889 198.42L133.744 198.62C133.544 199.063 133.242 199.427 132.839 199.71C132.435 199.99 131.984 200.13 131.484 200.13ZM129.854 197.145H133.114C133.087 196.865 132.997 196.61 132.844 196.38C132.69 196.147 132.495 195.96 132.259 195.82C132.022 195.68 131.764 195.61 131.484 195.61C131.204 195.61 130.947 195.678 130.714 195.815C130.48 195.952 130.287 196.137 130.134 196.37C129.984 196.6 129.89 196.858 129.854 197.145Z" fill="white"/>
<path d="M51.575 217.829C51.295 217.829 51.0547 217.731 50.854 217.535C50.658 217.334 50.56 217.087 50.56 216.793C50.56 216.513 50.658 216.273 50.854 216.072C51.0547 215.871 51.295 215.771 51.575 215.771C51.8643 215.771 52.107 215.871 52.303 216.072C52.5037 216.273 52.604 216.513 52.604 216.793C52.604 217.087 52.5037 217.334 52.303 217.535C52.107 217.731 51.8643 217.829 51.575 217.829ZM54.9332 217.829C54.6532 217.829 54.4129 217.731 54.2122 217.535C54.0162 217.334 53.9182 217.087 53.9182 216.793C53.9182 216.513 54.0162 216.273 54.2122 216.072C54.4129 215.871 54.6532 215.771 54.9332 215.771C55.2225 215.771 55.4652 215.871 55.6612 216.072C55.8619 216.273 55.9622 216.513 55.9622 216.793C55.9622 217.087 55.8619 217.334 55.6612 217.535C55.4652 217.731 55.2225 217.829 54.9332 217.829ZM58.2914 217.829C58.0114 217.829 57.7711 217.731 57.5704 217.535C57.3744 217.334 57.2764 217.087 57.2764 216.793C57.2764 216.513 57.3744 216.273 57.5704 216.072C57.7711 215.871 58.0114 215.771 58.2914 215.771C58.5807 215.771 58.8234 215.871 59.0194 216.072C59.2201 216.273 59.3204 216.513 59.3204 216.793C59.3204 217.087 59.2201 217.334 59.0194 217.535C58.8234 217.731 58.5807 217.829 58.2914 217.829ZM61.6496 217.829C61.3696 217.829 61.1293 217.731 60.9286 217.535C60.7326 217.334 60.6346 217.087 60.6346 216.793C60.6346 216.513 60.7326 216.273 60.9286 216.072C61.1293 215.871 61.3696 215.771 61.6496 215.771C61.9389 215.771 62.1816 215.871 62.3776 216.072C62.5783 216.273 62.6786 216.513 62.6786 216.793C62.6786 217.087 62.5783 217.334 62.3776 217.535C62.1816 217.731 61.9389 217.829 61.6496 217.829ZM68.5711 217.829C68.2911 217.829 68.0508 217.731 67.8501 217.535C67.6541 217.334 67.5561 217.087 67.5561 216.793C67.5561 216.513 67.6541 216.273 67.8501 216.072C68.0508 215.871 68.2911 215.771 68.5711 215.771C68.8604 215.771 69.1031 215.871 69.2991 216.072C69.4998 216.273 69.6001 216.513 69.6001 216.793C69.6001 217.087 69.4998 217.334 69.2991 217.535C69.1031 217.731 68.8604 217.829 68.5711 217.829ZM71.9293 217.829C71.6493 217.829 71.409 217.731 71.2083 217.535C71.0123 217.334 70.9143 217.087 70.9143 216.793C70.9143 216.513 71.0123 216.273 71.2083 216.072C71.409 215.871 71.6493 215.771 71.9293 215.771C72.2186 215.771 72.4613 215.871 72.6573 216.072C72.858 216.273 72.9583 216.513 72.9583 216.793C72.9583 217.087 72.858 217.334 72.6573 217.535C72.4613 217.731 72.2186 217.829 71.9293 217.829ZM75.2875 217.829C75.0075 217.829 74.7672 217.731 74.5665 217.535C74.3705 217.334 74.2725 217.087 74.2725 216.793C74.2725 216.513 74.3705 216.273 74.5665 216.072C74.7672 215.871 75.0075 215.771 75.2875 215.771C75.5768 215.771 75.8195 215.871 76.0155 216.072C76.2162 216.273 76.3165 216.513 76.3165 216.793C76.3165 217.087 76.2162 217.334 76.0155 217.535C75.8195 217.731 75.5768 217.829 75.2875 217.829ZM78.6457 217.829C78.3657 217.829 78.1254 217.731 77.9247 217.535C77.7287 217.334 77.6307 217.087 77.6307 216.793C77.6307 216.513 77.7287 216.273 77.9247 216.072C78.1254 215.871 78.3657 215.771 78.6457 215.771C78.935 215.771 79.1777 215.871 79.3737 216.072C79.5744 216.273 79.6747 216.513 79.6747 216.793C79.6747 217.087 79.5744 217.334 79.3737 217.535C79.1777 217.731 78.935 217.829 78.6457 217.829Z" fill="white"/>
<path d="M188.175 200V193H192.47V193.84H189.015V195.83H191.845V196.67H189.015V199.16H192.47V200H188.175ZM193.292 200L195.122 197.49L193.302 194.99H194.337L195.642 196.77L196.942 194.99H197.977L196.157 197.49L197.987 200H196.952L195.642 198.2L194.327 200H193.292ZM199.894 202.5H199.054V195H199.894V195.855C200.064 195.562 200.29 195.325 200.574 195.145C200.857 194.962 201.194 194.87 201.584 194.87C201.947 194.87 202.287 194.938 202.604 195.075C202.924 195.212 203.204 195.402 203.444 195.645C203.684 195.885 203.872 196.163 204.009 196.48C204.145 196.797 204.214 197.137 204.214 197.5C204.214 197.863 204.145 198.205 204.009 198.525C203.872 198.845 203.684 199.127 203.444 199.37C203.204 199.61 202.924 199.798 202.604 199.935C202.287 200.072 201.947 200.14 201.584 200.14C201.194 200.14 200.857 200.05 200.574 199.87C200.29 199.687 200.064 199.448 199.894 199.155V202.5ZM201.574 195.685C201.25 195.685 200.967 195.767 200.724 195.93C200.48 196.093 200.292 196.312 200.159 196.585C200.029 196.858 199.964 197.163 199.964 197.5C199.964 197.833 200.029 198.138 200.159 198.415C200.292 198.692 200.479 198.912 200.719 199.075C200.962 199.238 201.247 199.32 201.574 199.32C201.897 199.32 202.194 199.24 202.464 199.08C202.734 198.917 202.95 198.698 203.114 198.425C203.277 198.148 203.359 197.84 203.359 197.5C203.359 197.167 203.279 196.863 203.119 196.59C202.959 196.313 202.744 196.093 202.474 195.93C202.204 195.767 201.904 195.685 201.574 195.685ZM205.181 195H206.021V200H205.181V195ZM205.611 194.185C205.478 194.185 205.366 194.142 205.276 194.055C205.186 193.968 205.141 193.86 205.141 193.73C205.141 193.6 205.186 193.492 205.276 193.405C205.366 193.318 205.476 193.275 205.606 193.275C205.736 193.275 205.846 193.318 205.936 193.405C206.026 193.492 206.071 193.6 206.071 193.73C206.071 193.86 206.026 193.968 205.936 194.055C205.85 194.142 205.741 194.185 205.611 194.185ZM207.393 200V195H208.233V195.625C208.41 195.392 208.633 195.207 208.903 195.07C209.173 194.93 209.466 194.86 209.783 194.86C209.976 194.86 210.163 194.885 210.343 194.935L210.003 195.775C209.866 195.732 209.733 195.71 209.603 195.71C209.353 195.71 209.123 195.772 208.913 195.895C208.706 196.015 208.541 196.178 208.418 196.385C208.295 196.592 208.233 196.822 208.233 197.075V200H207.393ZM214.583 195H215.473L212.738 202.5H211.848L212.753 200L210.958 195H211.878L213.173 198.845L214.583 195ZM223.297 192.5H224.137V200H223.297V199.15C223.127 199.443 222.899 199.68 222.612 199.86C222.326 200.04 221.989 200.13 221.602 200.13C221.239 200.13 220.899 200.062 220.582 199.925C220.266 199.788 219.986 199.6 219.742 199.36C219.502 199.117 219.314 198.837 219.177 198.52C219.041 198.203 218.972 197.863 218.972 197.5C218.972 197.137 219.041 196.797 219.177 196.48C219.314 196.16 219.502 195.88 219.742 195.64C219.986 195.397 220.266 195.207 220.582 195.07C220.899 194.933 221.239 194.865 221.602 194.865C221.989 194.865 222.326 194.955 222.612 195.135C222.899 195.315 223.127 195.552 223.297 195.845V192.5ZM221.612 199.315C221.942 199.315 222.227 199.235 222.467 199.075C222.711 198.912 222.897 198.692 223.027 198.415C223.161 198.138 223.227 197.833 223.227 197.5C223.227 197.16 223.161 196.853 223.027 196.58C222.894 196.303 222.706 196.085 222.462 195.925C222.222 195.762 221.939 195.68 221.612 195.68C221.282 195.68 220.982 195.762 220.712 195.925C220.446 196.088 220.232 196.308 220.072 196.585C219.912 196.858 219.832 197.163 219.832 197.5C219.832 197.837 219.914 198.143 220.077 198.42C220.241 198.693 220.457 198.912 220.727 199.075C220.997 199.235 221.292 199.315 221.612 199.315ZM229.508 195H230.348V200H229.508L229.473 199.155C229.316 199.445 229.1 199.68 228.823 199.86C228.55 200.04 228.223 200.13 227.843 200.13C227.476 200.13 227.133 200.062 226.813 199.925C226.493 199.785 226.21 199.593 225.963 199.35C225.72 199.103 225.53 198.82 225.393 198.5C225.256 198.18 225.188 197.835 225.188 197.465C225.188 197.108 225.255 196.772 225.388 196.455C225.521 196.138 225.706 195.862 225.943 195.625C226.183 195.385 226.46 195.198 226.773 195.065C227.086 194.928 227.423 194.86 227.783 194.86C228.176 194.86 228.521 194.953 228.818 195.14C229.115 195.323 229.355 195.562 229.538 195.855L229.508 195ZM227.828 199.315C228.158 199.315 228.443 199.235 228.683 199.075C228.926 198.912 229.113 198.692 229.243 198.415C229.376 198.138 229.443 197.833 229.443 197.5C229.443 197.16 229.376 196.853 229.243 196.58C229.11 196.303 228.921 196.085 228.678 195.925C228.438 195.762 228.155 195.68 227.828 195.68C227.498 195.68 227.198 195.762 226.928 195.925C226.658 196.088 226.443 196.308 226.283 196.585C226.126 196.858 226.048 197.163 226.048 197.5C226.048 197.837 226.13 198.143 226.293 198.42C226.456 198.693 226.673 198.912 226.943 199.075C227.213 199.235 227.508 199.315 227.828 199.315ZM234.137 195.84H233.002L232.997 200H232.157L232.162 195.84H231.302V195H232.162L232.157 193.43H232.997L233.002 195H234.137V195.84ZM237.307 200.13C236.847 200.13 236.427 200.012 236.047 199.775C235.67 199.538 235.369 199.222 235.142 198.825C234.919 198.425 234.807 197.983 234.807 197.5C234.807 197.133 234.872 196.792 235.002 196.475C235.132 196.155 235.31 195.875 235.537 195.635C235.767 195.392 236.034 195.202 236.337 195.065C236.64 194.928 236.964 194.86 237.307 194.86C237.684 194.86 238.029 194.937 238.342 195.09C238.659 195.24 238.929 195.45 239.152 195.72C239.379 195.99 239.547 196.303 239.657 196.66C239.77 197.017 239.812 197.398 239.782 197.805H235.702C235.742 198.088 235.835 198.342 235.982 198.565C236.129 198.785 236.315 198.96 236.542 199.09C236.772 199.22 237.027 199.287 237.307 199.29C237.607 199.29 237.879 199.213 238.122 199.06C238.365 198.903 238.562 198.69 238.712 198.42L239.567 198.62C239.367 199.063 239.065 199.427 238.662 199.71C238.259 199.99 237.807 200.13 237.307 200.13ZM235.677 197.145H238.937C238.91 196.865 238.82 196.61 238.667 196.38C238.514 196.147 238.319 195.96 238.082 195.82C237.845 195.68 237.587 195.61 237.307 195.61C237.027 195.61 236.77 195.678 236.537 195.815C236.304 195.952 236.11 196.137 235.957 196.37C235.807 196.6 235.714 196.858 235.677 197.145Z" fill="white"/>
<path d="M189.15 217.829C188.87 217.829 188.63 217.731 188.429 217.535C188.233 217.334 188.135 217.087 188.135 216.793C188.135 216.513 188.233 216.273 188.429 216.072C188.63 215.871 188.87 215.771 189.15 215.771C189.44 215.771 189.682 215.871 189.878 216.072C190.079 216.273 190.179 216.513 190.179 216.793C190.179 217.087 190.079 217.334 189.878 217.535C189.682 217.731 189.44 217.829 189.15 217.829ZM192.508 217.829C192.228 217.829 191.988 217.731 191.787 217.535C191.591 217.334 191.493 217.087 191.493 216.793C191.493 216.513 191.591 216.273 191.787 216.072C191.988 215.871 192.228 215.771 192.508 215.771C192.798 215.771 193.04 215.871 193.236 216.072C193.437 216.273 193.537 216.513 193.537 216.793C193.537 217.087 193.437 217.334 193.236 217.535C193.04 217.731 192.798 217.829 192.508 217.829ZM195.867 217.829C195.587 217.829 195.346 217.731 195.146 217.535C194.95 217.334 194.852 217.087 194.852 216.793C194.852 216.513 194.95 216.273 195.146 216.072C195.346 215.871 195.587 215.771 195.867 215.771C196.156 215.771 196.399 215.871 196.595 216.072C196.795 216.273 196.896 216.513 196.896 216.793C196.896 217.087 196.795 217.334 196.595 217.535C196.399 217.731 196.156 217.829 195.867 217.829ZM199.225 217.829C198.945 217.829 198.704 217.731 198.504 217.535C198.308 217.334 198.21 217.087 198.21 216.793C198.21 216.513 198.308 216.273 198.504 216.072C198.704 215.871 198.945 215.771 199.225 215.771C199.514 215.771 199.757 215.871 199.953 216.072C200.153 216.273 200.254 216.513 200.254 216.793C200.254 217.087 200.153 217.334 199.953 217.535C199.757 217.731 199.514 217.829 199.225 217.829ZM205.859 211.2L203.024 221.784H201.568L204.403 211.2H205.859ZM208.197 217.829C207.917 217.829 207.677 217.731 207.476 217.535C207.28 217.334 207.182 217.087 207.182 216.793C207.182 216.513 207.28 216.273 207.476 216.072C207.677 215.871 207.917 215.771 208.197 215.771C208.486 215.771 208.729 215.871 208.925 216.072C209.126 216.273 209.226 216.513 209.226 216.793C209.226 217.087 209.126 217.334 208.925 217.535C208.729 217.731 208.486 217.829 208.197 217.829ZM211.555 217.829C211.275 217.829 211.035 217.731 210.834 217.535C210.638 217.334 210.54 217.087 210.54 216.793C210.54 216.513 210.638 216.273 210.834 216.072C211.035 215.871 211.275 215.771 211.555 215.771C211.845 215.771 212.087 215.871 212.283 216.072C212.484 216.273 212.584 216.513 212.584 216.793C212.584 217.087 212.484 217.334 212.283 217.535C212.087 217.731 211.845 217.829 211.555 217.829ZM214.913 217.829C214.633 217.829 214.393 217.731 214.192 217.535C213.996 217.334 213.898 217.087 213.898 216.793C213.898 216.513 213.996 216.273 214.192 216.072C214.393 215.871 214.633 215.771 214.913 215.771C215.203 215.771 215.445 215.871 215.641 216.072C215.842 216.273 215.942 216.513 215.942 216.793C215.942 217.087 215.842 217.334 215.641 217.535C215.445 217.731 215.203 217.829 214.913 217.829ZM218.272 217.829C217.992 217.829 217.751 217.731 217.551 217.535C217.355 217.334 217.257 217.087 217.257 216.793C217.257 216.513 217.355 216.273 217.551 216.072C217.751 215.871 217.992 215.771 218.272 215.771C218.561 215.771 218.804 215.871 219 216.072C219.2 216.273 219.301 216.513 219.301 216.793C219.301 217.087 219.2 217.334 219 217.535C218.804 217.731 218.561 217.829 218.272 217.829Z" fill="white"/>
</g>
</g>
<defs>
<filter id="filter0_d_887_19945" x="0" y="0" width="428" height="287" filterUnits="userSpaceOnUse" color-interpolation-filters="sRGB">
<feFlood flood-opacity="0" result="BackgroundImageFix"/>
<feColorMatrix in="SourceAlpha" type="matrix" values="0 0 0 0 0 0 0 0 0 0 0 0 0 0 0 0 0 0 127 0" result="hardAlpha"/>
<feOffset dx="4" dy="8"/>
<feGaussianBlur stdDeviation="12"/>
<feComposite in2="hardAlpha" operator="out"/>
<feColorMatrix type="matrix" values="0 0 0 0 0.976471 0 0 0 0 0.498039 0 0 0 0 0.145098 0 0 0 0.25 0"/>
<feBlend mode="normal" in2="BackgroundImageFix" result="effect1_dropShadow_887_19945"/>
<feBlend mode="normal" in="SourceGraphic" in2="effect1_dropShadow_887_19945" result="shape"/>
</filter>
<linearGradient id="paint0_linear_887_19945" x1="400" y1="255" x2="-4.26502" y2="68.6363" gradientUnits="userSpaceOnUse">
<stop stop-color="#FB9400"/>
<stop offset="1" stop-color="#FFAB38"/>
</linearGradient>
<clipPath id="clip0_887_19945">
<rect x="20" y="16" width="380" height="239" rx="44" fill="white"/>
</clipPath>
</defs>
</svg>
