<svg width="28" height="28" viewBox="0 0 28 28" fill="none" xmlns="http://www.w3.org/2000/svg">
<mask id="mask0_932_17016" style="mask-type:luminance" maskUnits="userSpaceOnUse" x="1" y="1" width="26" height="26">
<path fill-rule="evenodd" clip-rule="evenodd" d="M1.16675 1.16602H26.2419V26.2421H1.16675V1.16602Z" fill="white"/>
</mask>
<g mask="url(#mask0_932_17016)">
<path fill-rule="evenodd" clip-rule="evenodd" d="M7.12659 22.9535C7.80326 22.9535 8.44142 23.2102 9.11692 23.482C13.2551 25.3953 18.1493 24.525 21.3378 21.3377C25.5448 17.1283 25.5448 10.2812 21.3378 6.07418C19.3008 4.03718 16.5918 2.91602 13.7078 2.91602C10.8226 2.91602 8.11242 4.03835 6.07659 6.07535C2.88692 9.26268 2.01892 14.1568 3.91476 18.2553C4.18776 18.9308 4.45142 19.5888 4.45142 20.2725C4.45142 20.955 4.21692 21.6422 4.01042 22.2488C3.84009 22.7482 3.58226 23.5018 3.74792 23.6675C3.91009 23.8355 4.66842 23.5707 5.16892 23.3992C5.76976 23.1938 6.45109 22.9582 7.12659 22.9535ZM13.6786 26.2423C11.8959 26.2423 10.1016 25.8655 8.42276 25.0885C7.92809 24.8902 7.46492 24.7035 7.13242 24.7035C6.74976 24.7058 6.23526 24.8832 5.73826 25.0547C4.71859 25.4047 3.44926 25.841 2.51009 24.9053C1.57442 23.9685 2.00609 22.7027 2.35376 21.6842C2.52526 21.1825 2.70142 20.6645 2.70142 20.2725C2.70142 19.9505 2.54626 19.5398 2.30826 18.9483C0.123091 14.2292 1.13342 8.54168 4.83992 4.83752C7.20592 2.47035 10.3548 1.16602 13.7066 1.16602C17.0584 1.16602 20.2084 2.46918 22.5744 4.83635C27.4651 9.72702 27.4651 17.6837 22.5744 22.5743C20.1769 24.973 16.9488 26.2423 13.6786 26.2423Z" fill="#212121"/>
</g>
<path fill-rule="evenodd" clip-rule="evenodd" d="M18.3124 15.3568C17.6684 15.3568 17.1411 14.8353 17.1411 14.1901C17.1411 13.5449 17.6579 13.0234 18.3019 13.0234H18.3124C18.9564 13.0234 19.4791 13.5449 19.4791 14.1901C19.4791 14.8353 18.9564 15.3568 18.3124 15.3568Z" fill="#212121"/>
<path fill-rule="evenodd" clip-rule="evenodd" d="M13.6354 15.3568C12.9914 15.3568 12.4641 14.8353 12.4641 14.1901C12.4641 13.5449 12.9798 13.0234 13.6249 13.0234H13.6354C14.2794 13.0234 14.8021 13.5449 14.8021 14.1901C14.8021 14.8353 14.2794 15.3568 13.6354 15.3568Z" fill="#212121"/>
<path fill-rule="evenodd" clip-rule="evenodd" d="M8.9582 15.3568C8.3142 15.3568 7.78687 14.8353 7.78687 14.1901C7.78687 13.5449 8.3037 13.0234 8.9477 13.0234H8.9582C9.6022 13.0234 10.1249 13.5449 10.1249 14.1901C10.1249 14.8353 9.6022 15.3568 8.9582 15.3568Z" fill="#212121"/>
</svg>
