<svg width="25" height="24" viewBox="0 0 25 24" fill="none" xmlns="http://www.w3.org/2000/svg">
<mask id="mask0_2604_6629" style="mask-type:luminance" maskUnits="userSpaceOnUse" x="0" y="0" width="25" height="24">
<path fill-rule="evenodd" clip-rule="evenodd" d="M0.333252 0.5H24.2179V23.2512H0.333252V0.5Z" fill="white"/>
</mask>
<g mask="url(#mask0_2604_6629)">
<path fill-rule="evenodd" clip-rule="evenodd" d="M2.46096 11.1436C4.09662 16.2326 10.5588 20.3475 12.2761 21.366C13.9993 20.337 20.5081 16.1766 22.0913 11.1483C23.1308 7.89797 22.166 3.7808 18.3323 2.5453C16.475 1.94914 14.3085 2.31197 12.8128 3.4693C12.5001 3.70964 12.0661 3.7143 11.7511 3.4763C10.1668 2.28514 8.09712 1.9363 6.21062 2.5453C2.38279 3.77964 1.42146 7.8968 2.46096 11.1436ZM12.2773 23.2513C12.1326 23.2513 11.9891 23.2163 11.8585 23.1451C11.4933 22.9456 2.89146 18.2043 0.794957 11.678C0.793791 11.678 0.793791 11.6768 0.793791 11.6768C-0.522209 7.5678 0.943124 2.40414 5.67396 0.879304C7.89529 0.160638 10.3161 0.476804 12.2738 1.7123C14.1708 0.512971 16.6908 0.181638 18.8678 0.879304C23.6033 2.40647 25.0733 7.56897 23.7585 11.6768C21.7296 18.1285 13.0648 22.941 12.6973 23.1428C12.5666 23.2151 12.422 23.2513 12.2773 23.2513Z" fill="#F97F25"/>
</g>
<path fill-rule="evenodd" clip-rule="evenodd" d="M19.1791 9.39598C18.7276 9.39598 18.345 9.04948 18.3076 8.59215C18.2306 7.63315 17.589 6.82348 16.6755 6.52831C16.2146 6.37898 15.9626 5.88548 16.1108 5.42698C16.2613 4.96731 16.7501 4.71764 17.2121 4.86231C18.8023 5.37681 19.9165 6.78498 20.053 8.44981C20.0915 8.93165 19.7333 9.35398 19.2515 9.39248C19.227 9.39481 19.2036 9.39598 19.1791 9.39598Z" fill="#F97F25"/>
</svg>
