<svg width="229" height="237" viewBox="0 0 229 237" fill="none" xmlns="http://www.w3.org/2000/svg">
<path d="M59.125 29.356C74.0625 20.256 95.3937 15.4185 117.612 16.156C139.8 16.8998 161.944 23.1748 178.6 35.2623C180.277 36.479 182.37 36.9794 184.416 36.6536C186.463 36.3277 188.296 35.2023 189.512 33.5248C190.729 31.8473 191.23 29.7552 190.904 27.7087C190.578 25.6622 189.452 23.829 187.775 22.6123C168.025 8.28729 142.65 1.36229 118.137 0.543538C93.6687 -0.275212 69.1375 4.96229 51 16.0185C50.0899 16.5349 49.2927 17.2288 48.6559 18.0591C48.0191 18.8894 47.5555 19.8392 47.2928 20.8521C47.0301 21.8649 46.9735 22.9203 47.1264 23.9554C47.2793 24.9906 47.6387 25.9845 48.183 26.8781C48.7274 27.7718 49.4458 28.547 50.2955 29.1577C51.1452 29.7684 52.1089 30.2021 53.1295 30.4332C54.1501 30.6644 55.2067 30.6881 56.2366 30.5031C57.2665 30.318 58.2487 29.928 59.125 29.356ZM124.731 36.781C123.712 36.6604 122.679 36.7416 121.692 37.0201C120.704 37.2986 119.781 37.7688 118.975 38.404C118.17 39.0393 117.497 39.827 116.995 40.7222C116.494 41.6175 116.174 42.6027 116.053 43.6217C115.932 44.6406 116.014 45.6734 116.292 46.661C116.571 47.6486 117.041 48.5716 117.676 49.3775C118.311 50.1833 119.099 50.8561 119.994 51.3575C120.89 51.859 121.875 52.1791 122.894 52.2998C171.825 58.1123 203.669 95.8998 212.994 149.037C213.383 151.048 214.547 152.826 216.234 153.987C217.921 155.148 219.997 155.601 222.014 155.247C224.031 154.893 225.829 153.761 227.02 152.094C228.211 150.428 228.7 148.361 228.381 146.337C218.231 88.4935 182.412 43.631 124.731 36.781ZM82.8437 99.781C58.9875 118.875 45.3313 160.219 71.4375 212.969C72.3405 214.823 72.4735 216.959 71.8075 218.911C71.1414 220.864 69.7305 222.473 67.8823 223.389C66.0341 224.305 63.8988 224.453 61.9421 223.8C59.9854 223.148 58.3661 221.748 57.4375 219.906C28.7875 162.025 42.3125 112.2 73.0812 87.581C88.325 75.381 107.594 69.6748 127.031 72.7248C146.531 75.7873 165.437 87.5498 180.225 108.856C180.83 109.698 181.262 110.651 181.496 111.662C181.729 112.672 181.758 113.719 181.583 114.741C181.408 115.762 181.03 116.739 180.474 117.614C179.917 118.489 179.192 119.244 178.34 119.835C177.488 120.427 176.528 120.843 175.514 121.059C174.5 121.275 173.453 121.288 172.434 121.095C171.415 120.903 170.445 120.51 169.579 119.939C168.714 119.368 167.971 118.63 167.394 117.769C154.681 99.456 139.319 90.4748 124.606 88.1623C109.819 85.8373 94.9187 90.1185 82.8437 99.781ZM112.081 225.469C96.0875 193.156 91.2062 165.844 94.1125 147.762C95.55 138.8 98.8 132.681 102.881 129.006C106.825 125.462 112.319 123.494 119.95 124.212C130.094 125.175 134.844 128.512 137.775 132.494C141.162 137.094 142.95 143.556 144.987 152.762L145.6 155.556C149.381 172.956 154.381 195.912 178.637 213.4C180.318 214.611 182.412 215.106 184.457 214.774C186.502 214.442 188.332 213.312 189.544 211.631C190.755 209.95 191.25 207.857 190.918 205.812C190.586 203.766 189.456 201.936 187.775 200.725C168.462 186.8 164.587 169.175 160.737 151.637L160.237 149.387C158.3 140.625 156 130.887 150.356 123.231C144.256 114.95 135.025 109.95 121.425 108.662C110.112 107.587 100.094 110.506 92.4437 117.381C84.9375 124.131 80.5062 133.944 78.6812 145.287C75.0687 167.819 81.325 198.55 98.0812 232.4C99.0332 234.198 100.649 235.554 102.586 236.179C104.522 236.804 106.626 236.649 108.45 235.747C110.274 234.845 111.673 233.267 112.352 231.348C113.03 229.43 112.933 227.323 112.081 225.475V225.469ZM39.05 36.2748C40.4205 37.8281 41.1179 39.8622 40.989 41.9296C40.8601 43.9971 39.9153 45.9287 38.3625 47.2998C28.3875 56.106 21.6563 64.9685 14.9688 76.5935C14.4566 77.4828 13.7743 78.2625 12.9608 78.8881C12.1473 79.5138 11.2186 79.973 10.2276 80.2397C9.23663 80.5064 8.20283 80.5752 7.18524 80.4424C6.16764 80.3095 5.18618 79.9776 4.29688 79.4654C3.40759 78.9532 2.62788 78.271 2.00227 77.4575C1.37666 76.644 0.917406 75.7152 0.650728 74.7243C0.38405 73.7333 0.315171 72.6995 0.448022 71.6819C0.580873 70.6643 0.912855 69.6828 1.42501 68.7935C8.77501 56.0248 16.525 45.731 28.025 35.5873C29.5784 34.2168 31.6124 33.5194 33.6799 33.6483C35.7473 33.7772 37.6789 34.722 39.05 36.2748ZM192.475 146.494C192.127 144.473 190.999 142.67 189.334 141.474C187.67 140.278 185.601 139.784 183.576 140.099C181.55 140.414 179.729 141.512 178.506 143.158C177.283 144.803 176.755 146.863 177.037 148.894C180.225 169.375 190.819 182.312 203.631 191.537C204.464 192.136 205.407 192.566 206.406 192.8C207.405 193.035 208.441 193.071 209.453 192.905C210.466 192.74 211.436 192.377 212.309 191.836C213.181 191.296 213.938 190.589 214.537 189.756C215.137 188.923 215.566 187.98 215.801 186.981C216.035 185.982 216.071 184.947 215.906 183.934C215.74 182.921 215.377 181.951 214.837 181.079C214.296 180.206 213.589 179.449 212.756 178.85C202.6 171.537 194.894 162.012 192.475 146.494ZM116.987 146.15C118.011 146.073 119.04 146.199 120.015 146.52C120.99 146.841 121.892 147.351 122.67 148.021C123.447 148.69 124.085 149.507 124.548 150.423C125.01 151.34 125.287 152.339 125.362 153.362C127.269 178.831 136.594 200.406 151.575 217.55C152.272 218.319 152.809 219.219 153.154 220.198C153.5 221.176 153.646 222.214 153.586 223.25C153.526 224.286 153.26 225.3 152.804 226.232C152.347 227.164 151.71 227.996 150.928 228.679C150.147 229.362 149.237 229.883 148.252 230.21C147.268 230.538 146.227 230.666 145.193 230.587C144.158 230.508 143.149 230.223 142.225 229.75C141.301 229.277 140.481 228.625 139.812 227.831C122.55 208.081 111.937 183.287 109.781 154.525C109.704 153.502 109.83 152.474 110.151 151.499C110.471 150.524 110.981 149.623 111.65 148.845C112.319 148.067 113.135 147.429 114.051 146.966C114.966 146.504 115.964 146.227 116.987 146.15ZM92.475 54.8998C93.4209 54.5017 94.2792 53.9212 95.0008 53.1915C95.7224 52.4617 96.2931 51.597 96.6805 50.6466C97.0679 49.6963 97.2644 48.6789 97.2586 47.6527C97.2528 46.6264 97.0449 45.6113 96.6469 44.6654C96.2488 43.7195 95.6683 42.8612 94.9386 42.1396C94.2088 41.418 93.3441 40.8473 92.3937 40.4599C91.4434 40.0725 90.426 39.8761 89.3998 39.8818C88.3735 39.8876 87.3584 40.0955 86.4125 40.4935C30.3375 64.0748 2.38126 116.831 9.81251 179.85C9.93234 180.869 10.2517 181.854 10.7524 182.75C11.253 183.645 11.9252 184.433 12.7304 185.069C13.5357 185.705 14.4583 186.176 15.4455 186.455C16.4328 186.734 17.4654 186.816 18.4844 186.697C19.5034 186.577 20.4888 186.257 21.3843 185.757C22.2799 185.256 23.068 184.584 23.7038 183.779C24.3396 182.973 24.8106 182.051 25.0898 181.064C25.369 180.076 25.4511 179.044 25.3313 178.025C18.625 121.15 43.5 75.4935 92.475 54.8873V54.8998Z" fill="url(#paint0_linear_1281_35383)"/>
<defs>
<linearGradient id="paint0_linear_1281_35383" x1="228.476" y1="236.557" x2="-44.345" y2="160.136" gradientUnits="userSpaceOnUse">
<stop stop-color="#FB9400"/>
<stop offset="1" stop-color="#FFAB38"/>
</linearGradient>
</defs>
</svg>
