<svg width="28" height="28" viewBox="0 0 28 28" fill="none" xmlns="http://www.w3.org/2000/svg">
<path fill-rule="evenodd" clip-rule="evenodd" d="M13.9679 23.7634C10.1891 23.7634 6.96094 23.1918 6.96094 20.9028C6.96094 18.6138 10.1681 16.6211 13.9679 16.6211C17.7468 16.6211 20.9749 18.5951 20.9749 20.8829C20.9749 23.1708 17.7678 23.7634 13.9679 23.7634Z" stroke="#212121" stroke-width="1.5" stroke-linecap="round" stroke-linejoin="round"/>
<path fill-rule="evenodd" clip-rule="evenodd" d="M13.968 13.3572C16.4483 13.3572 18.4597 11.347 18.4597 8.86667C18.4597 6.38633 16.4483 4.375 13.968 4.375C11.4877 4.375 9.47634 6.38633 9.47634 8.86667C9.46934 11.3377 11.4643 13.349 13.9365 13.3572H13.968Z" stroke="#212121" stroke-width="1.5" stroke-linecap="round" stroke-linejoin="round"/>
<path d="M21.4227 12.1245C22.8658 11.7383 23.9298 10.4223 23.9298 8.85552C23.9298 7.22102 22.7713 5.85602 21.229 5.54102" stroke="#212121" stroke-width="1.5" stroke-linecap="round" stroke-linejoin="round"/>
<path d="M22.1006 15.8027C24.1469 15.8027 25.8946 17.1899 25.8946 18.4289C25.8946 19.1581 25.2914 19.9526 24.3768 20.1672" stroke="#212121" stroke-width="1.5" stroke-linecap="round" stroke-linejoin="round"/>
<path d="M6.51444 12.1245C5.0701 11.7383 4.0061 10.4223 4.0061 8.85552C4.0061 7.22102 5.16577 5.85602 6.70694 5.54102" stroke="#212121" stroke-width="1.5" stroke-linecap="round" stroke-linejoin="round"/>
<path d="M5.8355 15.8027C3.78917 15.8027 2.0415 17.1899 2.0415 18.4289C2.0415 19.1581 2.64467 19.9526 3.5605 20.1672" stroke="#212121" stroke-width="1.5" stroke-linecap="round" stroke-linejoin="round"/>
</svg>
