<svg width="12" height="14" viewBox="0 0 12 14" fill="none" xmlns="http://www.w3.org/2000/svg">
<path fill-rule="evenodd" clip-rule="evenodd" d="M0.333252 5.87867C0.333252 2.81209 2.89584 0.333496 5.99555 0.333496C9.104 0.333496 11.6666 2.81209 11.6666 5.87867C11.6666 7.42396 11.1046 8.85858 10.1796 10.0745C9.15912 11.4158 7.90136 12.5845 6.48561 13.5018C6.16159 13.7138 5.86917 13.7298 5.51355 13.5018C4.08974 12.5845 2.83198 11.4158 1.82025 10.0745C0.894574 8.85858 0.333252 7.42396 0.333252 5.87867ZM4.1294 6.05133C4.1294 7.07863 4.96769 7.88661 5.99555 7.88661C7.02408 7.88661 7.87043 7.07863 7.87043 6.05133C7.87043 5.03203 7.02408 4.18472 5.99555 4.18472C4.96769 4.18472 4.1294 5.03203 4.1294 6.05133Z" fill="url(#paint0_linear_2953_1803)"/>
<defs>
<linearGradient id="paint0_linear_2953_1803" x1="11.6666" y1="13.6668" x2="-2.11565" y2="10.2702" gradientUnits="userSpaceOnUse">
<stop stop-color="#FB9400"/>
<stop offset="1" stop-color="#FFAB38"/>
</linearGradient>
</defs>
</svg>
