<svg width="25" height="25" viewBox="0 0 25 25" fill="none" xmlns="http://www.w3.org/2000/svg">
<path fill-rule="evenodd" clip-rule="evenodd" d="M11.08 11.0808L9.85851 14.9856L13.7622 13.7629L14.9848 9.85809L11.08 11.0808ZM8.52384 17.1941C8.29517 17.1941 8.07117 17.1043 7.90434 16.9386C7.67451 16.7076 7.59051 16.3681 7.68851 16.0589L9.54701 10.1218C9.63217 9.84642 9.84684 9.63292 10.1198 9.54776L16.057 7.68926C16.3685 7.59009 16.7068 7.67526 16.9378 7.90509C17.1677 8.13609 17.2517 8.47559 17.1537 8.78476L15.2963 14.7219C15.2112 14.9961 14.9953 15.2108 14.7223 15.2959L8.78517 17.1544C8.69884 17.1813 8.61017 17.1941 8.52384 17.1941Z" fill="#212121"/>
<mask id="mask0_2340_1990" style="mask-type:luminance" maskUnits="userSpaceOnUse" x="0" y="0" width="25" height="25">
<path fill-rule="evenodd" clip-rule="evenodd" d="M0.333252 0.333984H24.5087V24.5093H0.333252V0.333984Z" fill="white"/>
</mask>
<g mask="url(#mask0_2340_1990)">
<path fill-rule="evenodd" clip-rule="evenodd" d="M12.4208 2.08398C6.72051 2.08398 2.08301 6.72265 2.08301 12.4218C2.08301 18.1222 6.72051 22.7597 12.4208 22.7597C18.1212 22.7597 22.7587 18.1222 22.7587 12.4218C22.7587 6.72265 18.1212 2.08398 12.4208 2.08398ZM12.4208 24.5097C5.75567 24.5097 0.333008 19.087 0.333008 12.4218C0.333008 5.75665 5.75567 0.333984 12.4208 0.333984C19.086 0.333984 24.5087 5.75665 24.5087 12.4218C24.5087 19.087 19.086 24.5097 12.4208 24.5097Z" fill="#212121"/>
</g>
</svg>
