<svg width="24" height="22" viewBox="0 0 24 22" fill="none" xmlns="http://www.w3.org/2000/svg">
<mask id="mask0_2340_2558" style="mask-type:luminance" maskUnits="userSpaceOnUse" x="0" y="0" width="24" height="22">
<path fill-rule="evenodd" clip-rule="evenodd" d="M0.333252 0.5H23.6826V21.7164H0.333252V0.5Z" fill="white"/>
</mask>
<g mask="url(#mask0_2340_2558)">
<path fill-rule="evenodd" clip-rule="evenodd" d="M12.0149 2.25C11.4595 2.25 10.9649 2.537 10.6872 3.01883L2.28952 17.678C2.01652 18.1563 2.01886 18.7268 2.29536 19.204C2.57186 19.6812 3.06652 19.967 3.61836 19.967H20.3985C20.9492 19.967 21.4439 19.6812 21.7204 19.204C21.998 18.7268 22.0004 18.1563 21.725 17.678L13.3425 3.01883C13.066 2.537 12.5714 2.25 12.0149 2.25ZM20.3985 21.717H3.61836C2.43536 21.717 1.37486 21.1057 0.781023 20.0813C0.18719 19.0582 0.18369 17.8343 0.770523 16.8088L9.17052 2.1485C9.76086 1.116 10.8237 0.5 12.0149 0.5H12.016C13.206 0.5 14.2712 1.11717 14.8615 2.15083L23.2452 16.8088C23.832 17.8343 23.8285 19.0582 23.2347 20.0813C22.6409 21.1057 21.5804 21.717 20.3985 21.717Z" fill="#212121"/>
</g>
<path fill-rule="evenodd" clip-rule="evenodd" d="M12.0044 13.5249C11.5214 13.5249 11.1294 13.1329 11.1294 12.6499V9.0332C11.1294 8.5502 11.5214 8.1582 12.0044 8.1582C12.4874 8.1582 12.8794 8.5502 12.8794 9.0332V12.6499C12.8794 13.1329 12.4874 13.5249 12.0044 13.5249Z" fill="#212121"/>
<path fill-rule="evenodd" clip-rule="evenodd" d="M12.0067 17.4154C11.3616 17.4154 10.8342 16.8939 10.8342 16.2487C10.8342 15.6035 11.3511 15.082 11.9951 15.082H12.0067C12.6519 15.082 13.1734 15.6035 13.1734 16.2487C13.1734 16.8939 12.6519 17.4154 12.0067 17.4154Z" fill="#212121"/>
</svg>
