<svg width="24" height="24" viewBox="0 0 24 24" fill="none" xmlns="http://www.w3.org/2000/svg">
<path fill-rule="evenodd" clip-rule="evenodd" d="M15.7158 16.9735H8.4958C8.0818 16.9735 7.7458 16.6375 7.7458 16.2235C7.7458 15.8095 8.0818 15.4735 8.4958 15.4735H15.7158C16.1298 15.4735 16.4658 15.8095 16.4658 16.2235C16.4658 16.6375 16.1298 16.9735 15.7158 16.9735Z" fill="#9E9E9E"/>
<path fill-rule="evenodd" clip-rule="evenodd" d="M15.7158 12.787H8.4958C8.0818 12.787 7.7458 12.451 7.7458 12.037C7.7458 11.623 8.0818 11.287 8.4958 11.287H15.7158C16.1298 11.287 16.4658 11.623 16.4658 12.037C16.4658 12.451 16.1298 12.787 15.7158 12.787Z" fill="#9E9E9E"/>
<path fill-rule="evenodd" clip-rule="evenodd" d="M11.2505 8.6102H8.4955C8.0815 8.6102 7.7455 8.2742 7.7455 7.8602C7.7455 7.4462 8.0815 7.1102 8.4955 7.1102H11.2505C11.6645 7.1102 12.0005 7.4462 12.0005 7.8602C12.0005 8.2742 11.6645 8.6102 11.2505 8.6102Z" fill="#9E9E9E"/>
<mask id="mask0_2919_20927" style="mask-type:luminance" maskUnits="userSpaceOnUse" x="3" y="2" width="19" height="20">
<path fill-rule="evenodd" clip-rule="evenodd" d="M3 2H21.1647V21.9098H3V2Z" fill="white"/>
</mask>
<g mask="url(#mask0_2919_20927)">
<path fill-rule="evenodd" clip-rule="evenodd" d="M15.9087 3.49979L8.2197 3.50379C5.8917 3.51779 4.4997 4.95779 4.4997 7.35679V16.5528C4.4997 18.9678 5.9047 20.4098 8.2557 20.4098L15.9447 20.4068C18.2727 20.3928 19.6647 18.9508 19.6647 16.5528V7.35679C19.6647 4.94179 18.2607 3.49979 15.9087 3.49979ZM8.2567 21.9098C5.1127 21.9098 2.9997 19.7568 2.9997 16.5528V7.35679C2.9997 4.12379 5.0467 2.02279 8.2147 2.00379L15.9077 1.99979H15.9087C19.0527 1.99979 21.1647 4.15279 21.1647 7.35679V16.5528C21.1647 19.7848 19.1177 21.8868 15.9497 21.9068L8.2567 21.9098Z" fill="#9E9E9E"/>
</g>
</svg>
