<svg width="24" height="24" viewBox="0 0 24 24" fill="none" xmlns="http://www.w3.org/2000/svg">
<path d="M14.6249 22.9673C14.1777 23.4145 13.6235 23.6382 12.9624 23.6382C12.3013 23.6382 11.7471 23.4145 11.2999 22.9673L1.03326 12.7007C0.81937 12.4868 0.649037 12.234 0.522259 11.9423C0.395481 11.6507 0.332481 11.3395 0.333259 11.009V2.66732C0.333259 2.02565 0.561926 1.47615 1.01926 1.01882C1.47659 0.561486 2.0257 0.333209 2.66659 0.333986H11.0083C11.3388 0.333986 11.6499 0.397375 11.9416 0.524153C12.2333 0.650931 12.486 0.820875 12.6999 1.03399L22.9666 11.3298C23.4138 11.777 23.6374 12.3265 23.6374 12.9783C23.6374 13.6301 23.4138 14.1792 22.9666 14.6257L14.6249 22.9673ZM12.9624 22.2049L22.2616 12.9783L11.4166 2.08398H2.08325V11.4173L12.9624 22.2049Z" fill="#212121"/>
</svg>
