<svg width="24" height="24" viewBox="0 0 24 24" fill="none" xmlns="http://www.w3.org/2000/svg">
<path d="M11.029 2.54059C11.326 2.37563 11.6602 2.28906 12 2.28906C12.3398 2.28906 12.674 2.37563 12.971 2.54059L20.486 6.71459C20.6418 6.80123 20.7716 6.92795 20.862 7.08161C20.9524 7.23528 21 7.41032 21 7.58859V15.8236C20.9999 16.1802 20.9045 16.5304 20.7235 16.8377C20.5426 17.1451 20.2828 17.3984 19.971 17.5716L12.971 21.4616C12.674 21.6266 12.3398 21.7131 12 21.7131C11.6602 21.7131 11.326 21.6266 11.029 21.4616L4.029 17.5716C3.71736 17.3985 3.45763 17.1453 3.27671 16.8381C3.0958 16.531 3.00026 16.1811 3 15.8246V7.58859C2.99999 7.41032 3.04764 7.23528 3.13802 7.08161C3.22839 6.92795 3.3582 6.80123 3.514 6.71459L11.029 2.54059Z" stroke="#F97F25" stroke-width="2" stroke-linecap="round" stroke-linejoin="round"/>
<path d="M7.5 4.5L16.5 9.5V13M6 12.328L9 14" stroke="#F97F25" stroke-width="2" stroke-linecap="round" stroke-linejoin="round"/>
<path d="M3 7L12 12M12 12L21 7M12 12V22" stroke="#F97F25" stroke-width="2" stroke-linejoin="round"/>
</svg>
