<svg width="10" height="10" viewBox="0 0 10 10" fill="none" xmlns="http://www.w3.org/2000/svg">
<path fill-rule="evenodd" clip-rule="evenodd" d="M0 5.00751C0 2.37356 2.105 0 5.01 0C7.85 0 10 2.32849 10 4.99249C10 8.08212 7.48 10 5 10C4.18 10 3.27 9.77967 2.54 9.34902C2.285 9.19379 2.07 9.07862 1.795 9.16875L0.785 9.4692C0.53 9.54932 0.3 9.34902 0.375 9.07862L0.71 7.95694C0.765 7.8017 0.755 7.63645 0.675 7.50626C0.245 6.71507 0 5.84877 0 5.00751ZM4.35 5.00751C4.35 5.36304 4.635 5.64847 4.99 5.65348C5.345 5.65348 5.63 5.36304 5.63 5.01252C5.63 4.65699 5.345 4.37156 4.99 4.37156C4.64 4.36655 4.35 4.65699 4.35 5.00751ZM6.655 5.01252C6.655 5.36304 6.94 5.65348 7.295 5.65348C7.65 5.65348 7.935 5.36304 7.935 5.01252C7.935 4.65699 7.65 4.37156 7.295 4.37156C6.94 4.37156 6.655 4.65699 6.655 5.01252ZM2.685 5.65348C2.335 5.65348 2.045 5.36304 2.045 5.01252C2.045 4.65699 2.33 4.37156 2.685 4.37156C3.04 4.37156 3.325 4.65699 3.325 5.01252C3.325 5.36304 3.04 5.64847 2.685 5.65348Z" fill="#F97F25"/>
</svg>
