<svg width="10" height="10" viewBox="0 0 10 10" fill="none" xmlns="http://www.w3.org/2000/svg">
<path d="M7.61573 5.79687L7.6157 5.79685L7.61147 5.80095C7.36363 6.04114 7.25046 6.38758 7.30667 6.72675L7.30661 6.72676L7.30791 6.73391L7.75233 9.19351C7.75503 9.20849 7.74887 9.22421 7.73532 9.23356L7.73522 9.23342L7.72437 9.24135C7.70986 9.25196 7.68907 9.25419 7.67071 9.24435L7.67073 9.24432L7.66566 9.24168L5.45271 8.08748C5.30595 8.00979 5.14537 7.96931 4.98422 7.9647L4.97708 7.9645H4.96994H4.83444H4.79741L4.76078 7.96996C4.66008 7.98495 4.55905 8.0171 4.46415 8.0683L2.25786 9.22424C2.24446 9.23053 2.2302 9.23312 2.21621 9.23218C2.19094 9.22431 2.17423 9.19911 2.17762 9.17203L2.62145 6.7185L2.62152 6.71851L2.62282 6.71058C2.67865 6.37086 2.56605 6.02523 2.32073 5.78371L2.32074 5.7837L2.31793 5.78097L0.512604 4.03114C0.51258 4.03112 0.512557 4.03109 0.512534 4.03107C0.50064 4.01948 0.49729 4.00335 0.502218 3.98917L0.503557 3.98527C0.510944 3.96344 0.529139 3.94811 0.550696 3.94417L3.02264 3.58557C3.37718 3.54493 3.68714 3.32764 3.84665 3.00861L3.84667 3.00862L3.84883 3.00419L4.93795 0.771257L4.94641 0.764675L4.96528 0.75H5.03108C5.04569 0.754708 5.05751 0.764598 5.06456 0.777311L6.17106 3.00626C6.32378 3.31713 6.61901 3.53169 6.95872 3.58373L6.95872 3.58375L6.96265 3.58432L9.44765 3.94482L9.44873 3.94497C9.47143 3.94822 9.49104 3.9632 9.50027 3.98434C9.50349 3.99888 9.49901 4.0144 9.48731 4.02538L9.48573 4.02687L7.61573 5.79687Z" fill="url(#paint0_linear_2953_19282)" stroke="url(#paint1_linear_2953_19282)"/>
<defs>
<linearGradient id="paint0_linear_2953_19282" x1="10.0013" y1="9.75063" x2="-1.80035" y2="6.14853" gradientUnits="userSpaceOnUse">
<stop stop-color="#FACC15"/>
<stop offset="1" stop-color="#FFE580"/>
</linearGradient>
<linearGradient id="paint1_linear_2953_19282" x1="10.0013" y1="9.75063" x2="-1.80035" y2="6.14853" gradientUnits="userSpaceOnUse">
<stop stop-color="#FB9400"/>
<stop offset="1" stop-color="#FFAB38"/>
</linearGradient>
</defs>
</svg>
