<svg width="10" height="10" viewBox="0 0 10 10" fill="none" xmlns="http://www.w3.org/2000/svg">
<mask id="path-1-inside-1_2953_20118" fill="white">
<path fill-rule="evenodd" clip-rule="evenodd" d="M4.87496 1.25C4.82946 1.25 4.71746 1.2625 4.65796 1.3815L3.74496 3.207C3.60046 3.4955 3.32196 3.696 2.99996 3.742L0.955958 4.0365C0.820958 4.056 0.774958 4.156 0.760958 4.198C0.748458 4.2385 0.728458 4.3415 0.821458 4.4305L2.29946 5.8505C2.53496 6.077 2.64196 6.4035 2.58596 6.723L2.23796 8.728C2.21646 8.8535 2.29496 8.9265 2.32996 8.9515C2.36696 8.9795 2.46596 9.035 2.58846 8.971L4.41596 8.0235C4.70396 7.875 5.04696 7.875 5.33396 8.0235L7.16096 8.9705C7.28396 9.034 7.38296 8.9785 7.42046 8.9515C7.45546 8.9265 7.53396 8.8535 7.51246 8.728L7.16346 6.723C7.10746 6.4035 7.21446 6.077 7.44996 5.8505L8.92796 4.4305C9.02146 4.3415 9.00146 4.238 8.98846 4.198C8.97496 4.156 8.92896 4.056 8.79396 4.0365L6.74996 3.742C6.42846 3.696 6.14996 3.4955 6.00546 3.2065L5.09146 1.3815C5.03246 1.2625 4.92046 1.25 4.87496 1.25ZM2.47346 9.75C2.26696 9.75 2.06196 9.685 1.88646 9.557C1.58346 9.335 1.43496 8.9685 1.49946 8.5995L1.84746 6.5945C1.86046 6.52 1.83496 6.4445 1.77996 6.3915L0.301958 4.9715C0.029958 4.711 -0.067542 4.326 0.047458 3.9685C0.163458 3.607 0.470458 3.3485 0.848958 3.2945L2.89296 3C2.97196 2.989 3.03996 2.9405 3.07396 2.8715L3.98746 1.0455C4.15596 0.709 4.49596 0.5 4.87496 0.5C5.25396 0.5 5.59396 0.709 5.76246 1.0455L6.67646 2.871C6.71096 2.9405 6.77846 2.989 6.85696 3L8.90096 3.2945C9.27946 3.3485 9.58646 3.607 9.70246 3.9685C9.81746 4.326 9.71946 4.711 9.44746 4.9715L7.96946 6.3915C7.91446 6.4445 7.88946 6.52 7.90246 6.594L8.25096 8.5995C8.31496 8.969 8.16646 9.3355 7.86296 9.557C7.55546 9.7825 7.15496 9.813 6.81546 9.636L4.98896 8.6895C4.91746 8.6525 4.83196 8.6525 4.76046 8.6895L2.93396 9.6365C2.78796 9.7125 2.63046 9.75 2.47346 9.75Z"/>
</mask>
<path fill-rule="evenodd" clip-rule="evenodd" d="M4.87496 1.25C4.82946 1.25 4.71746 1.2625 4.65796 1.3815L3.74496 3.207C3.60046 3.4955 3.32196 3.696 2.99996 3.742L0.955958 4.0365C0.820958 4.056 0.774958 4.156 0.760958 4.198C0.748458 4.2385 0.728458 4.3415 0.821458 4.4305L2.29946 5.8505C2.53496 6.077 2.64196 6.4035 2.58596 6.723L2.23796 8.728C2.21646 8.8535 2.29496 8.9265 2.32996 8.9515C2.36696 8.9795 2.46596 9.035 2.58846 8.971L4.41596 8.0235C4.70396 7.875 5.04696 7.875 5.33396 8.0235L7.16096 8.9705C7.28396 9.034 7.38296 8.9785 7.42046 8.9515C7.45546 8.9265 7.53396 8.8535 7.51246 8.728L7.16346 6.723C7.10746 6.4035 7.21446 6.077 7.44996 5.8505L8.92796 4.4305C9.02146 4.3415 9.00146 4.238 8.98846 4.198C8.97496 4.156 8.92896 4.056 8.79396 4.0365L6.74996 3.742C6.42846 3.696 6.14996 3.4955 6.00546 3.2065L5.09146 1.3815C5.03246 1.2625 4.92046 1.25 4.87496 1.25ZM2.47346 9.75C2.26696 9.75 2.06196 9.685 1.88646 9.557C1.58346 9.335 1.43496 8.9685 1.49946 8.5995L1.84746 6.5945C1.86046 6.52 1.83496 6.4445 1.77996 6.3915L0.301958 4.9715C0.029958 4.711 -0.067542 4.326 0.047458 3.9685C0.163458 3.607 0.470458 3.3485 0.848958 3.2945L2.89296 3C2.97196 2.989 3.03996 2.9405 3.07396 2.8715L3.98746 1.0455C4.15596 0.709 4.49596 0.5 4.87496 0.5C5.25396 0.5 5.59396 0.709 5.76246 1.0455L6.67646 2.871C6.71096 2.9405 6.77846 2.989 6.85696 3L8.90096 3.2945C9.27946 3.3485 9.58646 3.607 9.70246 3.9685C9.81746 4.326 9.71946 4.711 9.44746 4.9715L7.96946 6.3915C7.91446 6.4445 7.88946 6.52 7.90246 6.594L8.25096 8.5995C8.31496 8.969 8.16646 9.3355 7.86296 9.557C7.55546 9.7825 7.15496 9.813 6.81546 9.636L4.98896 8.6895C4.91746 8.6525 4.83196 8.6525 4.76046 8.6895L2.93396 9.6365C2.78796 9.7125 2.63046 9.75 2.47346 9.75Z" fill="white"/>
<path d="M4.65796 1.3815L5.55234 1.82881L5.55239 1.82871L4.65796 1.3815ZM3.74496 3.207L4.63908 3.65483L4.63934 3.65431L3.74496 3.207ZM2.99996 3.742L2.85854 2.75205L2.85735 2.75222L2.99996 3.742ZM0.955958 4.0365L0.81335 3.04672L0.812997 3.04677L0.955958 4.0365ZM0.760958 4.198L-0.187725 3.88177L-0.191265 3.89239L-0.194566 3.90309L0.760958 4.198ZM0.821458 4.4305L1.51428 3.70938L1.51286 3.70803L0.821458 4.4305ZM2.29946 5.8505L2.99266 5.12976L2.99227 5.12939L2.29946 5.8505ZM2.58596 6.723L1.60097 6.55036L1.60069 6.55199L2.58596 6.723ZM2.23796 8.728L1.25269 8.55699L1.25232 8.55914L2.23796 8.728ZM2.32996 8.9515L2.9334 8.15409L2.92241 8.14578L2.9112 8.13777L2.32996 8.9515ZM2.58846 8.971L2.12817 8.08322L2.1254 8.08467L2.58846 8.971ZM4.41596 8.0235L3.95767 7.13469L3.95568 7.13573L4.41596 8.0235ZM5.33396 8.0235L5.79415 7.13568L5.79351 7.13535L5.33396 8.0235ZM7.16096 8.9705L6.70077 9.85832L6.70222 9.85907L7.16096 8.9705ZM7.42046 8.9515L6.83922 8.13776L6.83615 8.13997L7.42046 8.9515ZM7.51246 8.728L8.4981 8.55914L8.49765 8.55651L7.51246 8.728ZM7.16346 6.723L8.14865 6.55151L8.14844 6.55036L7.16346 6.723ZM7.44996 5.8505L6.75714 5.12939L6.75676 5.12976L7.44996 5.8505ZM8.92796 4.4305L8.23849 3.70617L8.23514 3.70939L8.92796 4.4305ZM8.98846 4.198L8.03643 4.50401L8.03743 4.50709L8.98846 4.198ZM8.79396 4.0365L8.93692 3.04677L8.93657 3.04672L8.79396 4.0365ZM6.74996 3.742L6.89257 2.75222L6.8916 2.75208L6.74996 3.742ZM6.00546 3.2065L6.89989 2.75929L6.89959 2.7587L6.00546 3.2065ZM5.09146 1.3815L4.19552 1.8257L4.19733 1.8293L5.09146 1.3815ZM1.88646 9.557L1.29544 10.3637L1.29719 10.3649L1.88646 9.557ZM1.49946 8.5995L2.48452 8.77169L2.48473 8.77051L1.49946 8.5995ZM1.84746 6.5945L0.862343 6.4226L0.862189 6.42349L1.84746 6.5945ZM1.77996 6.3915L2.47385 5.67142L2.47277 5.67039L1.77996 6.3915ZM0.301958 4.9715L0.994775 4.25038L0.993633 4.24929L0.301958 4.9715ZM0.047458 3.9685L0.999418 4.27472L0.999637 4.27404L0.047458 3.9685ZM0.848958 3.2945L0.990196 4.28448L0.991566 4.28428L0.848958 3.2945ZM2.89296 3L2.75505 2.00954L2.75035 2.01022L2.89296 3ZM3.07396 2.8715L2.17961 2.42408L2.17695 2.42949L3.07396 2.8715ZM3.98746 1.0455L3.0933 0.597755L3.09313 0.598091L3.98746 1.0455ZM5.76246 1.0455L6.65664 0.597797L6.65662 0.597755L5.76246 1.0455ZM6.67646 2.871L7.57218 2.42636L7.57064 2.4233L6.67646 2.871ZM6.85696 3L6.99957 2.01021L6.99573 2.00968L6.85696 3ZM8.90096 3.2945L8.75835 4.28428L8.75972 4.28448L8.90096 3.2945ZM9.70246 3.9685L8.75028 4.27404L8.7505 4.27472L9.70246 3.9685ZM9.44746 4.9715L8.75578 4.24929L8.75464 4.25039L9.44746 4.9715ZM7.96946 6.3915L7.27664 5.67038L7.27556 5.67142L7.96946 6.3915ZM7.90246 6.594L8.8877 6.42279L8.88738 6.42097L7.90246 6.594ZM8.25096 8.5995L9.23629 8.42883L9.23619 8.42829L8.25096 8.5995ZM7.86296 9.557L7.27344 8.74924L7.27159 8.7506L7.86296 9.557ZM6.81546 9.636L7.27776 8.74927L7.27556 8.74813L6.81546 9.636ZM4.98896 8.6895L5.44906 7.80163L5.44855 7.80137L4.98896 8.6895ZM4.76046 8.6895L4.30087 7.80137L4.30017 7.80173L4.76046 8.6895ZM2.93396 9.6365L2.47367 8.74873L2.47222 8.74948L2.93396 9.6365ZM4.87496 0.25C4.69614 0.25 4.07968 0.301989 3.76353 0.934286L5.55239 1.82871C5.46579 2.00191 5.32043 2.12255 5.17267 2.18722C5.04439 2.24336 4.93398 2.25 4.87496 2.25V0.25ZM3.76358 0.934188L2.85058 2.75969L4.63934 3.65431L5.55234 1.82881L3.76358 0.934188ZM2.85084 2.75917C2.85245 2.75595 2.8544 2.75413 2.85546 2.75337C2.85654 2.75259 2.85771 2.75217 2.85854 2.75205L3.14138 4.73195C3.78639 4.6398 4.34701 4.23795 4.63908 3.65483L2.85084 2.75917ZM2.85735 2.75222L0.81335 3.04672L1.09857 5.02628L3.14257 4.73178L2.85735 2.75222ZM0.812997 3.04677C0.123963 3.1463 -0.125078 3.69383 -0.187725 3.88177L1.70964 4.51423C1.69041 4.57191 1.6472 4.67933 1.54843 4.78651C1.43529 4.90927 1.27645 5.00058 1.09892 5.02623L0.812997 3.04677ZM-0.194566 3.90309C-0.250344 4.08381 -0.371213 4.67326 0.130059 5.15297L1.51286 3.70803C1.64759 3.83697 1.7242 4.00859 1.74444 4.17622C1.76209 4.32248 1.73411 4.43581 1.71648 4.49291L-0.194566 3.90309ZM0.128642 5.15161L1.60664 6.57161L2.99227 5.12939L1.51427 3.70939L0.128642 5.15161ZM1.60626 6.57125C1.60509 6.57012 1.60314 6.56755 1.60188 6.5637C1.60062 6.55985 1.60016 6.55502 1.60097 6.55036L3.57094 6.89564C3.68477 6.24622 3.46646 5.58545 2.99266 5.12976L1.60626 6.57125ZM1.60069 6.55199L1.25269 8.55699L3.22323 8.89901L3.57123 6.89401L1.60069 6.55199ZM1.25232 8.55914C1.13489 9.24457 1.58711 9.6498 1.74872 9.76523L2.9112 8.13777C2.97006 8.17981 3.0583 8.25484 3.12966 8.37894C3.21163 8.52148 3.25629 8.70604 3.2236 8.89686L1.25232 8.55914ZM1.72652 9.74891C1.90158 9.88139 2.43061 10.1817 3.05152 9.85733L2.1254 8.08467C2.28666 8.00042 2.47007 7.98299 2.63247 8.01706C2.77367 8.04668 2.8734 8.10869 2.9334 8.15409L1.72652 9.74891ZM3.04874 9.85877L4.87624 8.91127L3.95568 7.13573L2.12818 8.08323L3.04874 9.85877ZM4.87425 8.9123L4.87441 8.91165L5.79351 7.13535C5.21779 6.83746 4.53271 6.83819 3.95767 7.1347L4.87425 8.9123ZM4.87377 8.91132L6.70077 9.85832L7.62115 8.08268L5.79415 7.13568L4.87377 8.91132ZM6.70222 9.85907C7.32203 10.1791 7.8456 9.87763 8.00476 9.76303L6.83615 8.13997C6.8855 8.10444 6.98073 8.04465 7.11931 8.01585C7.27818 7.98284 7.45919 7.99906 7.61969 8.08193L6.70222 9.85907ZM8.0017 9.76523C8.16331 9.6498 8.61552 9.24457 8.4981 8.55914L6.52682 8.89686C6.49413 8.70604 6.53879 8.52148 6.62076 8.37894C6.69212 8.25484 6.78036 8.17981 6.83922 8.13777L8.0017 9.76523ZM8.49765 8.55651L8.14865 6.55151L6.17827 6.89449L6.52727 8.89949L8.49765 8.55651ZM8.14844 6.55036C8.14926 6.55502 8.1488 6.55985 8.14754 6.5637C8.14627 6.56755 8.14433 6.57012 8.14316 6.57125L6.75676 5.12976C6.28296 5.58545 6.06465 6.24622 6.17847 6.89564L8.14844 6.55036ZM8.14277 6.57161L9.62078 5.15161L8.23514 3.70939L6.75714 5.12939L8.14277 6.57161ZM9.61742 5.15482C10.1206 4.67587 10.003 4.08433 9.93949 3.88891L8.03743 4.50709C8.01553 4.43972 7.98758 4.32347 8.00533 4.1762C8.0257 4.00724 8.10312 3.83504 8.2385 3.70618L9.61742 5.15482ZM9.94049 3.89199C9.87638 3.69255 9.62532 3.14621 8.93692 3.04677L8.651 5.02623C8.47362 5.00061 8.31438 4.90932 8.20073 4.78575C8.10153 4.67789 8.05725 4.56878 8.03643 4.50401L9.94049 3.89199ZM8.93657 3.04672L6.89257 2.75222L6.60735 4.73178L8.65135 5.02628L8.93657 3.04672ZM6.8916 2.75208C6.89283 2.75226 6.8942 2.75281 6.89535 2.75363C6.89649 2.75445 6.89837 2.75626 6.89989 2.75929L5.11103 3.65371C5.4029 4.23745 5.96351 4.63966 6.60832 4.73192L6.8916 2.75208ZM6.89959 2.7587L5.98559 0.933699L4.19733 1.8293L5.11133 3.6543L6.89959 2.7587ZM5.98739 0.9373C5.6722 0.301583 5.05268 0.25 4.87496 0.25V2.25C4.81608 2.25 4.70536 2.24341 4.57667 2.18699C4.42825 2.12194 4.28213 2.00037 4.19553 1.8257L5.98739 0.9373ZM2.47346 8.75C2.4753 8.75 2.47696 8.75032 2.47807 8.75068C2.47931 8.75108 2.4785 8.75109 2.47572 8.74906L1.29719 10.3649C1.644 10.6179 2.05538 10.75 2.47346 10.75V8.75ZM2.47748 8.75034C2.47633 8.7495 2.47693 8.74974 2.47826 8.75145C2.47954 8.75309 2.48099 8.75545 2.48219 8.75843C2.4834 8.76141 2.48414 8.76449 2.48445 8.76732C2.48476 8.77026 2.48449 8.77189 2.48452 8.77169L0.514394 8.42731C0.383964 9.1735 0.687692 9.91838 1.29544 10.3637L2.47748 8.75034ZM2.48473 8.77051L2.83273 6.76551L0.862189 6.42349L0.514189 8.42849L2.48473 8.77051ZM2.83257 6.7664C2.90441 6.35474 2.76071 5.94785 2.47385 5.67142L1.08606 7.11158C0.909207 6.94115 0.816511 6.68526 0.862343 6.4226L2.83257 6.7664ZM2.47277 5.67039L0.994774 4.25039L-0.390858 5.69261L1.08714 7.11261L2.47277 5.67039ZM0.993633 4.24929C0.993135 4.24881 0.994102 4.24966 0.995474 4.25201C0.996795 4.25428 0.998045 4.25719 0.998898 4.26055C0.999752 4.26392 1.00008 4.26722 0.999986 4.27014C0.999892 4.27317 0.999386 4.27482 0.999417 4.27472L-0.904501 3.66228C-1.13694 4.38487 -0.937602 5.16899 -0.389717 5.69371L0.993633 4.24929ZM0.999637 4.27404C0.999935 4.27311 0.999735 4.27405 0.998437 4.27599C0.997196 4.27783 0.995511 4.27975 0.993513 4.28143C0.991516 4.28311 0.989706 4.28414 0.988523 4.28467C0.987253 4.28523 0.987555 4.28485 0.990196 4.28448L0.70772 2.30452C-0.0473042 2.41224 -0.670953 2.93445 -0.904721 3.66296L0.999637 4.27404ZM0.991566 4.28428L3.03557 3.98978L2.75035 2.01022L0.70635 2.30472L0.991566 4.28428ZM3.03087 3.99044C3.42658 3.93535 3.78537 3.69016 3.97097 3.31351L2.17695 2.42949C2.29454 2.19084 2.51734 2.04265 2.75505 2.00956L3.03087 3.99044ZM3.96829 3.31891L4.88179 1.49291L3.09313 0.598091L2.17963 2.42409L3.96829 3.31891ZM4.88162 1.49324C4.8819 1.49269 4.88153 1.49353 4.88023 1.49495C4.87899 1.49629 4.8775 1.49753 4.87592 1.49849C4.87435 1.49946 4.87308 1.49993 4.87243 1.50012C4.87168 1.50033 4.87235 1.5 4.87496 1.5V-0.5C4.12077 -0.5 3.4328 -0.0802377 3.0933 0.597755L4.88162 1.49324ZM4.87496 1.5C4.87757 1.5 4.87824 1.50033 4.87749 1.50012C4.87684 1.49993 4.87557 1.49946 4.87399 1.49849C4.87242 1.49753 4.87092 1.49629 4.86969 1.49495C4.86838 1.49353 4.86802 1.49269 4.8683 1.49324L6.65662 0.597755C6.31712 -0.0802374 5.62915 -0.5 4.87496 -0.5V1.5ZM4.86828 1.4932L5.78228 3.3187L7.57064 2.4233L6.65664 0.597797L4.86828 1.4932ZM5.78075 3.31563C5.96431 3.68543 6.3179 3.93423 6.71819 3.99032L6.99573 2.00968C7.23902 2.04377 7.4576 2.19557 7.57217 2.42637L5.78075 3.31563ZM6.71435 3.98978L8.75835 4.28428L9.04357 2.30472L6.99957 2.01022L6.71435 3.98978ZM8.75972 4.28448C8.76236 4.28485 8.76266 4.28523 8.76139 4.28467C8.76021 4.28414 8.7584 4.28311 8.7564 4.28143C8.75441 4.27975 8.75272 4.27783 8.75148 4.27599C8.75018 4.27406 8.74998 4.27311 8.75028 4.27404L10.6546 3.66296C10.4209 2.93445 9.79722 2.41224 9.0422 2.30452L8.75972 4.28448ZM8.7505 4.27472C8.75051 4.27476 8.75036 4.27428 8.75019 4.27332C8.75003 4.27236 8.74988 4.27112 8.74984 4.26963C8.74974 4.26658 8.75009 4.26323 8.75093 4.2599C8.75178 4.25657 8.753 4.25376 8.75424 4.25163C8.75554 4.24941 8.7564 4.2487 8.75578 4.24929L10.1391 5.69371C10.6862 5.16973 10.8872 4.38588 10.6544 3.66228L8.7505 4.27472ZM8.75464 4.25039L7.27664 5.67039L8.66227 7.11261L10.1403 5.69261L8.75464 4.25039ZM7.27556 5.67142C6.98608 5.95038 6.8458 6.35866 6.91754 6.76703L8.88738 6.42097C8.93312 6.68134 8.84284 6.93862 8.66335 7.11158L7.27556 5.67142ZM6.91722 6.76521L7.26572 8.77071L9.23619 8.42829L8.88769 6.42279L6.91722 6.76521ZM7.26563 8.77017C7.26574 8.77081 7.26547 8.76953 7.26576 8.76682C7.26604 8.76421 7.26674 8.76122 7.26797 8.7582C7.26919 8.75518 7.27071 8.75269 7.27213 8.75086C7.27361 8.74896 7.2744 8.74854 7.27344 8.74924L8.45247 10.3648C9.06257 9.9195 9.36537 9.17411 9.23629 8.42883L7.26563 8.77017ZM7.27159 8.7506C7.26975 8.75195 7.26946 8.75181 7.27077 8.75133C7.272 8.75087 7.27376 8.75044 7.2758 8.75028C7.27784 8.75013 7.27945 8.75031 7.28034 8.75049C7.28132 8.7507 7.28049 8.7507 7.27776 8.74928L6.35316 10.5227C7.02966 10.8754 7.83882 10.8148 8.45432 10.3634L7.27159 8.7506ZM7.27556 8.74813L5.44906 7.80163L4.52886 9.57737L6.35536 10.5239L7.27556 8.74813ZM5.44855 7.80137C5.08881 7.61521 4.66061 7.61521 4.30087 7.80137L5.22005 9.57763C5.00331 9.68979 4.74611 9.68979 4.52937 9.57763L5.44855 7.80137ZM4.30017 7.80173L2.47367 8.74873L3.39425 10.5243L5.22075 9.57727L4.30017 7.80173ZM2.47222 8.74948C2.47029 8.75049 2.46974 8.75051 2.47048 8.75033C2.47116 8.75016 2.47223 8.75 2.47346 8.75V10.75C2.79075 10.75 3.10669 10.674 3.39569 10.5235L2.47222 8.74948Z" fill="url(#paint0_linear_2953_20118)" mask="url(#path-1-inside-1_2953_20118)"/>
<defs>
<linearGradient id="paint0_linear_2953_20118" x1="9.74982" y1="9.75023" x2="-1.75264" y2="6.23507" gradientUnits="userSpaceOnUse">
<stop stop-color="#FB9400"/>
<stop offset="1" stop-color="#FFAB38"/>
</linearGradient>
</defs>
</svg>
