<svg width="17" height="16" viewBox="0 0 17 16" fill="none" xmlns="http://www.w3.org/2000/svg">
<path fill-rule="evenodd" clip-rule="evenodd" d="M4.78856 0.731609C4.92705 0.831577 5.15039 1.06121 5.15039 1.06121C6.0174 1.87382 7.32329 3.89495 7.74266 4.92036C7.75144 4.92036 8.00013 5.53007 8.00989 5.82007V5.85868C8.00989 6.30309 7.76119 6.7188 7.36133 6.9316C7.19649 7.01933 6.79555 7.10093 6.60211 7.14029C6.53805 7.15333 6.49674 7.16173 6.49431 7.1642C5.9228 7.2513 5.04603 7.30871 4.08344 7.30871C3.07306 7.30871 2.15825 7.2513 1.59552 7.1444C1.58577 7.1444 1.0718 7.0385 0.900153 6.9702C0.652433 6.86429 0.44275 6.6703 0.309138 6.42879C0.213561 6.23578 0.166748 6.03189 0.166748 5.82007C0.175525 5.59737 0.31889 5.18167 0.385209 5.01736C0.804576 3.93355 2.17678 1.86392 3.01552 1.0711C3.10264 0.982681 3.2018 0.89005 3.27079 0.825594C3.3076 0.791204 3.33583 0.764834 3.34906 0.751404C3.55874 0.587101 3.81622 0.5 4.09319 0.5C4.33994 0.5 4.58766 0.577203 4.78856 0.731609ZM13.6906 6.46815C13.6906 6.90465 13.3424 7.25801 12.9123 7.25801C12.4822 7.25801 12.1341 6.90465 12.1341 6.46815L11.9195 2.65246C11.9195 2.09619 12.3642 1.64583 12.9123 1.64583C13.4604 1.64583 13.9042 2.09619 13.9042 2.65246L13.6906 6.46815ZM16.1 9.02966C16.3477 9.13656 16.5574 9.32957 16.691 9.57108C16.7866 9.76409 16.8334 9.96799 16.8334 10.1808C16.8246 10.4025 16.6813 10.8192 16.614 10.9835C16.1956 12.0664 14.8224 14.1361 13.9846 14.9299C13.899 15.0162 13.8017 15.107 13.7328 15.1712C13.6943 15.2071 13.6647 15.2347 13.6511 15.2486C13.4404 15.4129 13.1839 15.5 12.9079 15.5C12.6593 15.5 12.4115 15.4228 12.2116 15.2674C12.0731 15.1684 11.8498 14.9388 11.8498 14.9388C10.9818 14.1271 9.67687 12.105 9.2575 11.0795C9.24775 11.0795 9.00003 10.4708 8.99028 10.1808V10.1422C8.99028 9.69679 9.238 9.28107 9.63883 9.06826C9.80334 8.98144 10.203 8.89963 10.3969 8.85994L10.3969 8.85994C10.4616 8.84669 10.5034 8.83814 10.5058 8.83566C11.0774 8.74856 11.9541 8.69115 12.9167 8.69115C13.9271 8.69115 14.8419 8.74856 15.4046 8.85546C15.4134 8.85546 15.9284 8.96136 16.1 9.02966ZM4.08802 8.74211C3.65793 8.74211 3.30976 9.09546 3.30976 9.53195L3.0952 13.3476C3.0952 13.9038 3.53992 14.3542 4.08802 14.3542C4.63613 14.3542 5.07988 13.9038 5.07988 13.3476L4.86629 9.53195C4.86629 9.09546 4.51812 8.74211 4.08802 8.74211Z" fill="#07BD74"/>
</svg>
