<svg width="18" height="20" viewBox="0 0 18 20" fill="none" xmlns="http://www.w3.org/2000/svg">
<path d="M2.79639 5.16113C2.79639 4.78144 3.07854 4.46764 3.44462 4.41798L3.54639 4.41113L17.1642 4.41113C17.5784 4.41113 17.9142 4.74692 17.9142 5.16113C17.9142 5.54083 17.632 5.85462 17.2659 5.90429L17.1642 5.91113L3.54639 5.91113C3.13217 5.91113 2.79639 5.57535 2.79639 5.16113Z" fill="#212121"/>
<path d="M12.539 1.61526C12.2454 1.32304 12.2443 0.848168 12.5366 0.554599C12.8022 0.287718 13.2188 0.262549 13.5129 0.479725L13.5972 0.552148L17.6939 4.62993C17.9616 4.89644 17.986 5.3147 17.7669 5.6088L17.6939 5.69303L13.5972 9.77081C13.3036 10.063 12.8288 10.0619 12.5366 9.76836C12.2709 9.50148 12.2477 9.08476 12.4662 8.79165L12.539 8.7077L16.101 5.16192L12.539 1.61526Z" fill="#212121"/>
<path d="M0.0827637 15.0889C0.0827637 14.7092 0.364918 14.3954 0.730993 14.3457L0.832764 14.3389H14.4505C14.8648 14.3389 15.2005 14.6747 15.2005 15.0889C15.2005 15.4686 14.9184 15.7824 14.5523 15.832L14.4505 15.8389H0.832764C0.41855 15.8389 0.0827637 15.5031 0.0827637 15.0889Z" fill="#212121"/>
<path d="M0.303172 15.6208C0.0354185 15.3542 0.0110773 14.936 0.230148 14.6419L0.303172 14.5577L4.39984 10.4799C4.69341 10.1877 5.16828 10.1888 5.4605 10.4823C5.72615 10.7492 5.74939 11.1659 5.53086 11.459L5.45805 11.543L1.89494 15.0894L5.45805 18.6354C5.72493 18.9011 5.7501 19.3177 5.53292 19.6118L5.4605 19.6961C5.19485 19.963 4.77824 19.9881 4.48412 19.771L4.39984 19.6985L0.303172 15.6208Z" fill="#212121"/>
</svg>
