<svg width="24" height="24" viewBox="0 0 24 24" fill="none" xmlns="http://www.w3.org/2000/svg">
<path fill-rule="evenodd" clip-rule="evenodd" d="M11.9999 2.08398C6.53175 2.08398 2.08325 6.53248 2.08325 12.0007C2.08325 17.4688 6.53175 21.9173 11.9999 21.9173C17.4681 21.9173 21.9166 17.4688 21.9166 12.0007C21.9166 6.53248 17.4681 2.08398 11.9999 2.08398ZM11.9999 23.6673C5.56692 23.6673 0.333252 18.4337 0.333252 12.0007C0.333252 5.56765 5.56692 0.333984 11.9999 0.333984C18.4329 0.333984 23.6666 5.56765 23.6666 12.0007C23.6666 18.4337 18.4329 23.6673 11.9999 23.6673Z" fill="#212121"/>
<path fill-rule="evenodd" clip-rule="evenodd" d="M11.9929 13.6028C11.5099 13.6028 11.1179 13.2108 11.1179 12.7278V7.57227C11.1179 7.08927 11.5099 6.69727 11.9929 6.69727C12.4759 6.69727 12.8679 7.08927 12.8679 7.57227V12.7278C12.8679 13.2108 12.4759 13.6028 11.9929 13.6028Z" fill="#212121"/>
<path fill-rule="evenodd" clip-rule="evenodd" d="M12.0045 17.5951C11.3594 17.5951 10.832 17.0736 10.832 16.4284C10.832 15.7832 11.3489 15.2617 11.9929 15.2617H12.0045C12.6497 15.2617 13.1712 15.7832 13.1712 16.4284C13.1712 17.0736 12.6497 17.5951 12.0045 17.5951Z" fill="#212121"/>
</svg>
