<svg width="14" height="12" viewBox="0 0 14 12" fill="none" xmlns="http://www.w3.org/2000/svg">
<path fill-rule="evenodd" clip-rule="evenodd" d="M4.39838 6.00002C4.39838 7.42224 5.56261 8.57941 7.00001 8.57941C8.4309 8.57941 9.59513 7.42224 9.59513 6.00002C9.59513 4.57133 8.4309 3.41416 7.00001 3.41416C5.56261 3.41416 4.39838 4.57133 4.39838 6.00002ZM10.8244 2.03073C11.9626 2.90992 12.9317 4.19638 13.6277 5.80608C13.6797 5.92891 13.6797 6.07113 13.6277 6.18749C12.2358 9.40689 9.75773 11.3334 7.00001 11.3334H6.99351C4.24229 11.3334 1.76424 9.40689 0.372368 6.18749C0.320335 6.07113 0.320335 5.92891 0.372368 5.80608C1.76424 2.58669 4.24229 0.666687 6.99351 0.666687H7.00001C8.37887 0.666687 9.68619 1.14507 10.8244 2.03073ZM7.00079 7.60829C7.89185 7.60829 8.6203 6.88425 8.6203 5.9986C8.6203 5.10648 7.89185 4.38244 7.00079 4.38244C6.92274 4.38244 6.84469 4.3889 6.77315 4.40183C6.74713 5.11294 6.16177 5.68183 5.43981 5.68183H5.40729C5.38778 5.78526 5.37477 5.8887 5.37477 5.9986C5.37477 6.88425 6.10323 7.60829 7.00079 7.60829Z" fill="#9E9E9E"/>
</svg>
