<svg width="22" height="16" viewBox="0 0 22 16" fill="none" xmlns="http://www.w3.org/2000/svg">
<path d="M3.68758 0.416016C2.7538 0.416016 1.85826 0.786959 1.19798 1.44724C0.537692 2.10753 0.166748 3.00307 0.166748 3.93685V5.29102H21.8334V3.93685C21.8334 3.47449 21.7423 3.01665 21.5654 2.58948C21.3885 2.16232 21.1291 1.77418 20.8022 1.44724C20.4752 1.1203 20.0871 0.860962 19.6599 0.684023C19.2328 0.507085 18.7749 0.416016 18.3126 0.416016H3.68758ZM21.8334 6.91602H0.166748V12.0618C0.166748 12.9956 0.537692 13.8912 1.19798 14.5515C1.85826 15.2117 2.7538 15.5827 3.68758 15.5827H18.3126C18.7749 15.5827 19.2328 15.4916 19.6599 15.3147C20.0871 15.1377 20.4752 14.8784 20.8022 14.5515C21.1291 14.2245 21.3885 13.8364 21.5654 13.4092C21.7423 12.982 21.8334 12.5242 21.8334 12.0618V6.91602ZM15.0626 10.7077H17.7709C17.9864 10.7077 18.1931 10.7933 18.3454 10.9457C18.4978 11.098 18.5834 11.3047 18.5834 11.5202C18.5834 11.7357 18.4978 11.9423 18.3454 12.0947C18.1931 12.2471 17.9864 12.3327 17.7709 12.3327H15.0626C14.8471 12.3327 14.6404 12.2471 14.4881 12.0947C14.3357 11.9423 14.2501 11.7357 14.2501 11.5202C14.2501 11.3047 14.3357 11.098 14.4881 10.9457C14.6404 10.7933 14.8471 10.7077 15.0626 10.7077Z" fill="#F97F25"/>
</svg>
